<?xml version="1.0" encoding="UTF-8"?>
<svg id="Layer_1" data-name="Layer 1" xmlns="http://www.w3.org/2000/svg" viewBox="0 0 26 26">
  <path d="M19.47,25c-1.1,0-2.07-.3-2.91-.89-.83-.59-1.42-1.34-1.75-2.25-.38-1.05-.77-1.85-1.17-2.41-.4-.55-1.08-1.22-2.05-1.99-1.2-.92-2.07-1.97-2.62-3.16-.55-1.19-.83-2.56-.83-4.13,0-2.31,.74-4.21,2.23-5.72,1.49-1.5,3.37-2.26,5.64-2.26s4.12,.76,5.63,2.29c1.51,1.53,2.3,3.45,2.36,5.76h-2.43c-.06-1.61-.61-2.95-1.65-4-1.04-1.06-2.34-1.58-3.9-1.58s-2.84,.53-3.88,1.59c-1.04,1.06-1.56,2.37-1.56,3.92,0,1.26,.24,2.34,.73,3.24,.49,.9,1.32,1.79,2.5,2.68,.76,.58,1.36,1.18,1.79,1.8,.44,.62,.82,1.38,1.16,2.27,.29,.79,.65,1.38,1.09,1.77,.44,.39,.96,.59,1.58,.59,.58,0,1.06-.2,1.43-.6,.37-.4,.59-.96,.66-1.69h2.43c-.06,1.45-.52,2.6-1.37,3.46-.86,.86-1.89,1.29-3.11,1.29Zm-13-5.75c-1.12-1.28-1.98-2.7-2.58-4.26-.6-1.56-.9-3.19-.9-4.89s.29-3.3,.88-4.87c.59-1.57,1.45-2.98,2.59-4.24l1.73,1.68c-.95,1.04-1.65,2.2-2.1,3.48-.45,1.28-.67,2.59-.67,3.94s.23,2.63,.7,3.92c.47,1.29,1.17,2.46,2.11,3.52l-1.77,1.71Zm9.54-6.3c-.76,0-1.4-.27-1.94-.8-.53-.54-.8-1.19-.8-1.97s.27-1.43,.8-1.98c.53-.55,1.18-.82,1.94-.82s1.39,.27,1.94,.82c.55,.55,.82,1.21,.82,1.98s-.28,1.43-.82,1.97c-.55,.54-1.2,.8-1.94,.8Z"/>
</svg>