<?xml version="1.0" encoding="UTF-8"?>
<svg id="Layer_1" data-name="Layer 1" xmlns="http://www.w3.org/2000/svg" viewBox="0 0 26 26">
  <path d="M6.88,21.36c-1.63,0-3.03-.58-4.2-1.73-1.17-1.15-1.75-2.55-1.75-4.17,0-1.44,.44-2.71,1.32-3.83,.88-1.12,2.03-1.8,3.45-2.06,.41-1.73,1.3-3.14,2.66-4.23,1.36-1.09,2.92-1.63,4.67-1.63,2.08,0,3.84,.74,5.27,2.21,1.43,1.47,2.17,3.25,2.21,5.34v.43c1.29,.07,2.38,.56,3.25,1.47,.87,.92,1.31,2.04,1.31,3.36s-.48,2.47-1.43,3.41c-.95,.95-2.09,1.42-3.42,1.42h-6.11c-.56,0-1.04-.2-1.44-.61s-.61-.89-.61-1.44v-6.17l-2.11,2.1-1.34-1.33,4.4-4.4,4.4,4.4-1.34,1.33-2.11-2.1v6.17h6.27c.77,0,1.43-.27,1.98-.82,.55-.55,.82-1.21,.82-1.98s-.27-1.43-.82-1.98c-.55-.55-1.21-.82-1.98-.82h-1.74v-2.31c0-1.55-.53-2.87-1.6-3.97-1.06-1.1-2.37-1.66-3.92-1.66s-2.87,.56-3.93,1.68c-1.07,1.12-1.6,2.47-1.6,4.03h-.59c-1.08,0-1.99,.38-2.74,1.13-.75,.76-1.13,1.68-1.13,2.78s.38,2,1.14,2.76c.76,.77,1.68,1.15,2.76,1.15h3.37v2.05h-3.37Z"/>
</svg>