<svg width="50" height="50" viewBox="0 0 50 50" xmlns="http://www.w3.org/2000/svg">
    <path
        d="M37.402 11.6185C37.2125 11.4287 36.9875 11.278 36.7397 11.1753C36.492 11.0725 36.2264 11.0196 35.9582 11.0196C35.69 11.0196 35.4244 11.0725 35.1766 11.1753C34.9289 11.278 34.7038 11.4287 34.5144 11.6185L24.5 21.6124L14.4856 11.598C14.296 11.4084 14.0709 11.258 13.8232 11.1554C13.5755 11.0528 13.31 11 13.0418 11C12.7737 11 12.5082 11.0528 12.2605 11.1554C12.0127 11.258 11.7876 11.4084 11.598 11.598C11.4084 11.7876 11.258 12.0127 11.1554 12.2605C11.0528 12.5082 11 12.7737 11 13.0418C11 13.31 11.0528 13.5755 11.1554 13.8232C11.258 14.0709 11.4084 14.296 11.598 14.4856L21.6124 24.5L11.598 34.5144C11.4084 34.704 11.258 34.9291 11.1554 35.1768C11.0528 35.4245 11 35.69 11 35.9582C11 36.2263 11.0528 36.4918 11.1554 36.7395C11.258 36.9873 11.4084 37.2124 11.598 37.402C11.7876 37.5916 12.0127 37.742 12.2605 37.8446C12.5082 37.9472 12.7737 38 13.0418 38C13.31 38 13.5755 37.9472 13.8232 37.8446C14.0709 37.742 14.296 37.5916 14.4856 37.402L24.5 27.3876L34.5144 37.402C34.704 37.5916 34.9291 37.742 35.1768 37.8446C35.4245 37.9472 35.69 38 35.9582 38C36.2263 38 36.4918 37.9472 36.7395 37.8446C36.9873 37.742 37.2124 37.5916 37.402 37.402C37.5916 37.2124 37.742 36.9873 37.8446 36.7395C37.9472 36.4918 38 36.2263 38 35.9582C38 35.69 37.9472 35.4245 37.8446 35.1768C37.742 34.9291 37.5916 34.704 37.402 34.5144L27.3876 24.5L37.402 14.4856C38.1802 13.7074 38.1802 12.3967 37.402 11.6185Z" />
</svg>