<svg width="80" height="80" viewBox="0 0 80 80" xmlns="http://www.w3.org/2000/svg">
    <path
        d="M40.3333 73.6664C35.7593 73.6664 31.4445 72.7914 27.3889 71.0414C23.3334 69.2914 19.7963 66.9072 16.7778 63.8887C13.7593 60.8701 11.375 57.3331 9.625 53.2775C7.875 49.222 7 44.9071 7 40.3331C7 35.722 7.875 31.3886 9.625 27.3331C11.375 23.2775 13.7593 19.7498 16.7778 16.7498C19.7963 13.7498 23.3334 11.3748 27.3889 9.62476C31.4445 7.87476 35.7593 6.99976 40.3333 6.99976C44.9444 6.99976 49.2778 7.87476 53.3333 9.62476C57.3889 11.3748 60.9167 13.7498 63.9167 16.7498C66.9167 19.7498 69.2917 23.2775 71.0417 27.3331C72.7917 31.3886 73.6667 35.722 73.6667 40.3331C73.6667 44.9071 72.7917 49.222 71.0417 53.2775C69.2917 57.3331 66.9167 60.8701 63.9167 63.8887C60.9167 66.9072 57.3889 69.2914 53.3333 71.0414C49.2778 72.7914 44.9444 73.6664 40.3333 73.6664ZM40.3333 68.1109C48.0741 68.1109 54.6389 65.4072 60.0278 59.9998C65.4167 54.5924 68.1112 48.0368 68.1112 40.3331C68.1112 32.5924 65.4167 26.0275 60.0278 20.6386C54.6389 15.2497 48.0741 12.5553 40.3333 12.5553C32.6296 12.5553 26.0741 15.2497 20.6667 20.6386C15.2592 26.0275 12.5555 32.5924 12.5555 40.3331C12.5555 48.0368 15.2592 54.5924 20.6667 59.9998C26.0741 65.4072 32.6296 68.1109 40.3333 68.1109Z" />
    <path fill-rule="evenodd" clip-rule="evenodd"
        d="M56.406 24.1629C57.5776 25.3344 57.5776 27.2339 56.406 28.4055L28.1218 56.6898C26.9502 57.8613 25.0507 57.8613 23.8791 56.6898C22.7075 55.5182 22.7075 53.6187 23.8791 52.4471L52.1634 24.1629C53.335 22.9913 55.2345 22.9913 56.406 24.1629Z" />
    <path fill-rule="evenodd" clip-rule="evenodd"
        d="M56.4065 56.4055C55.2349 57.5771 53.3354 57.5771 52.1638 56.4055L23.8796 28.1213C22.708 26.9497 22.708 25.0502 23.8796 23.8786C25.0511 22.7071 26.9506 22.707 28.1222 23.8786L56.4065 52.1629C57.578 53.3345 57.578 55.234 56.4065 56.4055Z" />
</svg>