<?xml version="1.0" encoding="UTF-8"?>
<svg id="Layer_1" data-name="Layer 1" xmlns="http://www.w3.org/2000/svg" viewBox="0 0 26 26">
  <path d="M2,6.11V1H7.15v1.96H3.97v3.15h-1.97Zm20.03,0V2.96h-3.17V1h5.15V6.11h-1.97ZM2,25v-5.11h1.97v3.15h3.17v1.96H2Zm16.85,0v-1.96h3.17v-3.15h1.97v5.11h-5.15Zm-11.46-5.35h11.22V6.35H7.39v13.3Zm0,2.04c-.55,0-1.03-.2-1.44-.61-.41-.41-.61-.88-.61-1.43V6.35c0-.55,.2-1.02,.61-1.43,.41-.41,.89-.61,1.44-.61h11.22c.55,0,1.03,.2,1.44,.61,.41,.41,.61,.88,.61,1.43v13.3c0,.55-.2,1.02-.61,1.43s-.89,.61-1.44,.61H7.39Zm2.51-10.99h6.2v-1.86h-6.2v1.86Zm0,3.23h6.2v-1.86h-6.2v1.86Zm0,3.23h6.2v-1.86h-6.2v1.86Z"/>
</svg>