<svg width="80" height="80" viewBox="0 0 80 80" xmlns="http://www.w3.org/2000/svg">
    <path
        d="M35.168 55.2221L58.7236 31.6665L54.6124 27.6109L35.168 47.0554L25.3346 37.2221L21.2791 41.2776L35.168 55.2221ZM40.0013 73.3332C35.4272 73.3332 31.1124 72.4582 27.0569 70.7082C23.0013 68.9582 19.4643 66.5739 16.4457 63.5554C13.4272 60.5369 11.043 56.9998 9.29297 52.9443C7.54297 48.8887 6.66797 44.5739 6.66797 39.9998C6.66797 35.3887 7.54297 31.0554 9.29297 26.9998C11.043 22.9443 13.4272 19.4165 16.4457 16.4165C19.4643 13.4165 23.0013 11.0415 27.0569 9.2915C31.1124 7.5415 35.4272 6.6665 40.0013 6.6665C44.6124 6.6665 48.9458 7.5415 53.0013 9.2915C57.0569 11.0415 60.5846 13.4165 63.5846 16.4165C66.5846 19.4165 68.9596 22.9443 70.7096 26.9998C72.4596 31.0554 73.3346 35.3887 73.3346 39.9998C73.3346 44.5739 72.4596 48.8887 70.7096 52.9443C68.9596 56.9998 66.5846 60.5369 63.5846 63.5554C60.5846 66.5739 57.0569 68.9582 53.0013 70.7082C48.9458 72.4582 44.6124 73.3332 40.0013 73.3332ZM40.0013 67.7777C47.742 67.7777 54.3069 65.074 59.6958 59.6665C65.0847 54.2591 67.7791 47.7036 67.7791 39.9998C67.7791 32.2591 65.0847 25.6943 59.6958 20.3053C54.3069 14.9165 47.742 12.222 40.0013 12.222C32.2976 12.222 25.742 14.9165 20.3346 20.3053C14.9272 25.6943 12.2235 32.2591 12.2235 39.9998C12.2235 47.7036 14.9272 54.2591 20.3346 59.6665C25.742 65.074 32.2976 67.7777 40.0013 67.7777Z" />
</svg>