<svg id="Layer_1" data-name="Layer 1" xmlns="http://www.w3.org/2000/svg" viewBox="0 0 20 21"><path d="M12.78,14l1.43-1.43a1.4,1.4,0,0,1,1.5-.31l1.75.7a1.32,1.32,0,0,1,.63.51,1.3,1.3,0,0,1,.24.77v3.2a1.33,1.33,0,0,1-.43,1,1.5,1.5,0,0,1-.48.3,1.44,1.44,0,0,1-.55.08C4.62,18.07,2.14,7.69,1.67,3.71a1.44,1.44,0,0,1,.06-.58A1.32,1.32,0,0,1,2,2.63a1.29,1.29,0,0,1,.47-.34,1.42,1.42,0,0,1,.57-.12h3.1a1.3,1.3,0,0,1,.77.24A1.32,1.32,0,0,1,7.44,3l.7,1.75a1.34,1.34,0,0,1,.07.79,1.36,1.36,0,0,1-.37.71L6.4,7.72S7.23,13.32,12.78,14Z"/></svg>