<?xml version="1.0" encoding="UTF-8"?>
<svg id="Layer_1" data-name="Layer 1" xmlns="http://www.w3.org/2000/svg" viewBox="0 0 26 26">
  <path d="M3.63,24.5c-.56,0-1.06-.21-1.49-.64-.43-.43-.64-.92-.64-1.49v-4.72H3.63v4.72h4.72v2.13H3.63ZM1.5,8.35V3.64c0-.57,.21-1.06,.64-1.49,.43-.43,.92-.64,1.49-.64h4.72V3.64H3.63v4.72H1.5ZM17.64,24.5v-2.13h4.72v-4.72h2.14v4.72c0,.56-.21,1.06-.64,1.49-.43,.43-.93,.64-1.49,.64h-4.72Zm4.72-16.15V3.64h-4.72V1.5h4.72c.57,0,1.06,.21,1.49,.64,.43,.43,.64,.93,.64,1.49v4.72h-2.14Zm-9.37,4.65c-.96,0-1.77-.34-2.44-1.01-.67-.67-1.01-1.49-1.01-2.45s.34-1.77,1.01-2.44c.67-.67,1.49-1.01,2.44-1.01s1.78,.34,2.45,1.01c.67,.67,1.01,1.49,1.01,2.44s-.34,1.78-1.01,2.45c-.67,.67-1.49,1.01-2.45,1.01Zm0-1.85c.45,0,.84-.15,1.15-.46,.31-.31,.47-.69,.47-1.14s-.15-.83-.47-1.14c-.31-.31-.69-.47-1.16-.47s-.83,.16-1.13,.47c-.3,.31-.46,.69-.46,1.15s.15,.83,.46,1.14c.31,.3,.68,.46,1.13,.46Zm-6.75,8.61v-2.25c0-.53,.17-.98,.5-1.38s.74-.72,1.23-.98c.78-.42,1.59-.72,2.43-.91,.85-.19,1.71-.29,2.6-.29s1.75,.1,2.6,.29c.85,.2,1.66,.49,2.45,.9,.48,.27,.89,.6,1.22,.99,.33,.4,.5,.86,.5,1.38v2.24H6.24Zm6.76-3.96c-.8,0-1.6,.11-2.4,.34-.8,.23-1.56,.56-2.29,1v.77h9.39v-.77c-.73-.44-1.5-.77-2.29-1-.8-.23-1.6-.34-2.4-.34Zm0,2.11h0Z"/>
</svg>