<svg width="725" height="503" viewBox="0 0 725 503" fill="none" xmlns="http://www.w3.org/2000/svg">
    <path opacity="0.6"
        d="M734.5 518H78.0344H29.5L40.3369 488.957C49.9754 463.127 73.1734 444.795 100.533 441.39C144.194 435.955 184.036 413.773 211.655 379.523L233.145 352.873C246.434 336.394 266.466 326.813 287.636 326.813H316.436C340.474 326.813 363.691 318.067 381.755 302.207L443.794 247.736L485.116 206.725C499.396 192.554 519.585 186.054 539.451 189.233L550.047 190.929C570.343 194.177 590.815 186.247 603.627 170.176L734.5 6V518Z"
        fill="url(#paint0_linear_1101_32520)" stroke="#418DD9" stroke-width="4" />
    <path
        d="M422.269 214.644L463.513 173.722C477.792 159.554 497.977 153.057 517.84 156.235L529.015 158.023C548.953 161.213 569.09 153.617 581.954 138.055L643.398 63.7238L684.5 14M422.269 214.644L360.341 269.005C342.279 284.86 319.065 293.603 295.031 293.603H266.344C245.178 293.603 225.148 303.18 211.859 319.656L190.146 346.575M422.269 214.644L395.284 217.143M422.269 214.644L415.773 238.132M1.5 489L14.6149 460.835C25.5444 437.362 46.9177 420.431 72.2682 415.163L81.5647 413.232C124.147 404.383 162.343 381.045 189.648 347.193L190.146 346.575M684.5 14L663.636 18.2478M684.5 14L683.126 32.2404M190.146 346.575L163.411 350.573M190.146 346.575L187.398 371.062"
        stroke="#1262B3" stroke-width="2" stroke-dasharray="5 2.5" />
    <defs>
        <linearGradient id="paint0_linear_1101_32520" x1="391.757" y1="149.531" x2="720.093" y2="539.826"
            gradientUnits="userSpaceOnUse">
            <stop stop-color="#418DD9" />
            <stop offset="1" stop-color="#418DD9" stop-opacity="0" />
        </linearGradient>
    </defs>
</svg>