<svg width="343" height="234" viewBox="0 0 343 234" fill="none" xmlns="http://www.w3.org/2000/svg">
    <path opacity="0.6"
        d="M353 314H-5.49539H-32L-25.283 294.235C-20.5243 280.232 -8.26126 270.121 6.39174 268.118C30.4052 264.836 52.0609 251.955 66.4074 232.421L76.2984 218.953C85.3437 206.637 99.7119 199.363 114.993 199.363H116.248C134.733 199.363 152.498 192.194 165.806 179.365L194.246 151.947L215.373 128.925C224 119.524 236.826 115.171 249.393 117.38C262.129 119.618 275.026 114.4 282.623 103.936L353 7V314Z"
        fill="url(#paint0_linear_1136_32984)" stroke="#418DD9" stroke-width="4" />
    <path
        d="M182.79 132.387L203.759 109.529C212.458 100.046 225.393 95.6551 238.068 97.8831V97.8831C250.703 100.104 263.516 95.0476 271.229 84.7959L303.553 41.8343L326 12M182.79 132.387L154.382 159.784C141.093 172.6 123.35 179.762 104.887 179.762V179.762C88.8376 179.762 73.7471 187.404 64.249 200.341L56.0236 211.545M182.79 132.387L168.053 133.886M182.79 132.387L179.243 146.479M-47 297L-39.8043 280.022C-33.8687 266.017 -21.5678 255.715 -6.73851 252.33L-5.75016 252.104C19.0445 246.443 40.9727 232.046 56.0236 211.545V211.545M326 12L314.606 14.5487M326 12L325.249 22.9442M56.0236 211.545L41.4229 213.944M56.0236 211.545L54.5226 226.237"
        stroke="#1262B3" stroke-width="2" stroke-dasharray="6 3" />
    <defs>
        <linearGradient id="paint0_linear_1136_32984" x1="165.828" y1="93.0624" x2="365.022" y2="308.715"
            gradientUnits="userSpaceOnUse">
            <stop stop-color="#418DD9" />
            <stop offset="1" stop-color="#418DD9" stop-opacity="0" />
        </linearGradient>
    </defs>
</svg>