<svg width="235" height="37" viewBox="0 0 235 37" fill="none" xmlns="http://www.w3.org/2000/svg">
<path d="M42.55 0H30.0269V37H42.55V0Z" fill="#1262B3"/>
<path d="M4.98077 18.5V27.75H0L4.98077 18.5Z" fill="#418DD9"/>
<path d="M17.5038 9.25V18.5H12.5231L17.5038 9.25Z" fill="#1262B3"/>
<path fill-rule="evenodd" clip-rule="evenodd" d="M17.5039 18.5H4.98077V37H12.5231L17.5039 27.75V18.5Z" fill="#79B6F2"/>
<path fill-rule="evenodd" clip-rule="evenodd" d="M30.0269 9.25H17.5038V37H25.0462L30.0269 27.75V9.25Z" fill="#418DD9"/>
<path d="M30.0269 0V9.25H25.0461L30.0269 0Z" fill="#0D4680"/>
<path d="M69.8161 15.3978H65.8315C65.8126 14.7906 65.5943 14.3637 65.1769 14.1171C64.7595 13.8514 64.0385 13.7186 63.0138 13.7186C61.5149 13.7186 60.7654 14.155 60.7654 15.0278C60.7654 15.5401 61.2208 15.9197 62.1315 16.1663L67.0838 17.5609C69.0572 18.1112 70.0438 19.3635 70.0438 21.3178C70.0438 22.8548 69.4461 24.0975 68.2508 25.0463C67.1312 25.9191 65.5185 26.3555 63.4123 26.3555C60.8318 26.3555 58.9818 25.976 57.8623 25.2171C56.7618 24.496 56.1735 23.3291 56.0977 21.7163H59.9969C60.1108 22.3424 60.3765 22.7598 60.7938 22.9686C61.2303 23.1774 62.0272 23.2817 63.1846 23.2817C65.1389 23.2817 66.1161 22.8168 66.1161 21.8871C66.1161 21.3368 65.6797 20.9289 64.8069 20.6632L60.1392 19.2401C58.9438 18.8797 58.128 18.4621 57.6915 17.9878C57.1223 17.3997 56.8377 16.6028 56.8377 15.5971C56.8377 13.9463 57.4638 12.675 58.7161 11.7832C59.8166 11.0242 61.2588 10.6448 63.0423 10.6448C65.2054 10.6448 66.9131 11.1286 68.1654 12.0963C69.2469 12.9501 69.7972 14.0506 69.8161 15.3978ZM72.8018 10.9578H76.701V12.7794C77.8584 11.3563 79.2341 10.6448 80.8279 10.6448C82.7822 10.6448 84.1484 11.3848 84.9264 12.8648C86.0648 11.3848 87.5353 10.6448 89.3379 10.6448C90.8558 10.6448 92.0322 11.0622 92.8671 11.8971C93.721 12.713 94.1479 13.8514 94.1479 15.3124V26.0424H90.2487V15.9386C90.2487 14.6294 89.5371 13.9748 88.1141 13.9748C87.2791 13.9748 86.6245 14.2404 86.1502 14.7717C85.6758 15.284 85.4387 16.0051 85.4387 16.9348V26.0424H81.511V15.9386C81.511 14.6294 80.8088 13.9748 79.4048 13.9748C78.5699 13.9748 77.9153 14.2404 77.441 14.7717C76.9665 15.284 76.7295 16.0051 76.7295 16.9348V26.0424H72.8018V10.9578ZM110.654 25.0463V26.0424H106.385C106.1 25.682 105.949 25.1697 105.93 24.5055C104.886 25.7389 103.368 26.3555 101.376 26.3555C99.9148 26.3555 98.7383 25.9097 97.8465 25.0178C97.1256 24.2968 96.7649 23.3006 96.7649 22.0294C96.7649 20.132 97.524 18.7848 99.0419 17.9878C99.6871 17.6463 100.968 17.3048 102.884 16.9632L105.958 16.394L105.93 15.3124C105.911 14.3068 105.152 13.804 103.653 13.804C102.685 13.804 102.002 13.9558 101.603 14.2594C101.224 14.544 100.987 15.0752 100.892 15.8532H97.135C97.3626 12.3809 99.5068 10.6448 103.567 10.6448C105.806 10.6448 107.419 11.0432 108.406 11.8401C109.298 12.5991 109.743 13.7471 109.743 15.284V23.7086C109.743 24.3917 110.047 24.8375 110.654 25.0463ZM105.958 18.7563L103.083 19.4109C102.268 19.6006 101.66 19.8758 101.262 20.2363C100.882 20.5968 100.693 21.0428 100.693 21.574C100.693 22.6555 101.395 23.1963 102.799 23.1963C104.829 23.1963 105.873 22.0863 105.93 19.8663L105.958 18.7563ZM113.298 10.9578H117.226V13.8324C117.719 11.7073 119.123 10.6448 121.438 10.6448C121.799 10.6448 122.055 10.6448 122.207 10.6448L122.235 14.5155C121.761 14.4206 121.267 14.3732 120.755 14.3732C119.465 14.3732 118.573 14.6104 118.08 15.0848C117.511 15.616 117.226 16.5743 117.226 17.9594V26.0424H113.298V10.9578ZM131.31 10.9578V13.5478H128.663V21.944C128.663 22.4943 128.758 22.8737 128.947 23.0824C129.156 23.2912 129.526 23.3955 130.057 23.3955C130.494 23.3955 131.054 23.2248 131.737 22.8832C131.794 22.8452 131.841 22.8168 131.879 22.7978L132.334 25.4732C131.139 26.0614 129.887 26.3555 128.577 26.3555C126.016 26.3555 124.735 25.1791 124.735 22.8263V13.5478H122.8V10.9578H124.735V8.45322L128.663 6.20476V10.9578H131.31ZM134.867 10.9578H138.766V12.7794C139.923 11.3563 141.299 10.6448 142.893 10.6448C144.848 10.6448 146.214 11.3848 146.991 12.8648C148.129 11.3848 149.601 10.6448 151.403 10.6448C152.921 10.6448 154.098 11.0622 154.932 11.8971C155.786 12.713 156.213 13.8514 156.213 15.3124V26.0424H152.313V15.9386C152.313 14.6294 151.602 13.9748 150.179 13.9748C149.345 13.9748 148.69 14.2404 148.215 14.7717C147.741 15.284 147.503 16.0051 147.503 16.9348V26.0424H143.576V15.9386C143.576 14.6294 142.874 13.9748 141.47 13.9748C140.635 13.9748 139.98 14.2404 139.506 14.7717C139.032 15.284 138.795 16.0051 138.795 16.9348V26.0424H134.867V10.9578ZM172.947 19.5248H162.814C162.871 20.7391 163.062 21.6024 163.383 22.1148C163.934 22.9497 164.798 23.3671 165.973 23.3671C167.435 23.3671 168.413 22.7598 168.905 21.5455H172.776C172.34 23.0255 171.486 24.202 170.214 25.0748C168.962 25.9286 167.492 26.3555 165.803 26.3555C163.507 26.3555 161.743 25.5871 160.509 24.0501C159.427 22.7029 158.887 20.9289 158.887 18.7278C158.887 16.0524 159.59 13.9842 160.993 12.5232C162.226 11.2709 163.849 10.6448 165.86 10.6448C167.397 10.6448 168.744 11.0242 169.901 11.7832C171.06 12.5422 171.885 13.6048 172.377 14.9709C172.776 16.0335 172.975 17.3143 172.975 18.8132C172.975 19.0029 172.966 19.2401 172.947 19.5248ZM168.877 16.9348C168.687 14.7337 167.673 13.6332 165.831 13.6332C164.105 13.6332 163.119 14.7337 162.871 16.9348H168.877ZM182.868 10.9578V13.5478H180.221V21.944C180.221 22.4943 180.317 22.8737 180.506 23.0824C180.715 23.2912 181.085 23.3955 181.616 23.3955C182.053 23.3955 182.612 23.2248 183.295 22.8832C183.352 22.8452 183.4 22.8168 183.437 22.7978L183.893 25.4732C182.697 26.0614 181.445 26.3555 180.136 26.3555C177.574 26.3555 176.294 25.1791 176.294 22.8263V13.5478H174.358V10.9578H176.294V8.45322L180.221 6.20476V10.9578H182.868ZM186.426 10.9578H190.354V13.8324C190.846 11.7073 192.251 10.6448 194.566 10.6448C194.926 10.6448 195.182 10.6448 195.334 10.6448L195.363 14.5155C194.888 14.4206 194.395 14.3732 193.883 14.3732C192.592 14.3732 191.7 14.6104 191.207 15.0848C190.638 15.616 190.354 16.5743 190.354 17.9594V26.0424H186.426V10.9578ZM201.277 10.9578V26.0424H197.349V10.9578H201.277ZM199.285 5.77783C199.797 5.77783 200.224 5.95809 200.566 6.3186C200.927 6.67911 201.106 7.11552 201.106 7.62783C201.106 8.14014 200.927 8.57655 200.566 8.93706C200.224 9.2786 199.797 9.44937 199.285 9.44937C198.773 9.44937 198.337 9.2786 197.976 8.93706C197.616 8.57655 197.435 8.14014 197.435 7.62783C197.435 7.11552 197.616 6.67911 197.976 6.3186C198.337 5.95809 198.773 5.77783 199.285 5.77783ZM217.826 16.4794H214.098C213.87 15.4928 213.538 14.8001 213.101 14.4017C212.685 14.0032 212.087 13.804 211.308 13.804C210.133 13.804 209.316 14.2214 208.861 15.0563C208.368 16.024 208.121 17.2098 208.121 18.614C208.121 20.0371 208.397 21.166 208.946 22.0009C209.515 22.8168 210.294 23.2248 211.28 23.2248C212.058 23.2248 212.656 23.0255 213.073 22.6271C213.51 22.2097 213.851 21.5266 214.098 20.5778H217.826C217.637 22.4752 216.878 23.9458 215.549 24.9894C214.392 25.9191 212.959 26.384 211.251 26.384C208.861 26.384 207.049 25.6155 205.815 24.0786C204.734 22.7504 204.193 20.9574 204.193 18.6994C204.193 15.9671 204.905 13.8989 206.328 12.4948C207.561 11.2614 209.231 10.6448 211.337 10.6448C213.349 10.6448 214.943 11.2235 216.118 12.3809C217.125 13.4055 217.694 14.7717 217.826 16.4794ZM233.109 15.3978H229.124C229.105 14.7906 228.886 14.3637 228.469 14.1171C228.052 13.8514 227.331 13.7186 226.306 13.7186C224.808 13.7186 224.058 14.155 224.058 15.0278C224.058 15.5401 224.513 15.9197 225.424 16.1663L230.376 17.5609C232.35 18.1112 233.336 19.3635 233.336 21.3178C233.336 22.8548 232.739 24.0975 231.543 25.0463C230.423 25.9191 228.811 26.3555 226.705 26.3555C224.125 26.3555 222.275 25.976 221.155 25.2171C220.055 24.496 219.465 23.3291 219.39 21.7163H223.289C223.403 22.3424 223.669 22.7598 224.086 22.9686C224.523 23.1774 225.32 23.2817 226.477 23.2817C228.431 23.2817 229.409 22.8168 229.409 21.8871C229.409 21.3368 228.972 20.9289 228.099 20.6632L223.432 19.2401C222.236 18.8797 221.421 18.4621 220.984 17.9878C220.415 17.3997 220.13 16.6028 220.13 15.5971C220.13 13.9463 220.756 12.675 222.009 11.7832C223.109 11.0242 224.552 10.6448 226.335 10.6448C228.498 10.6448 230.205 11.1286 231.458 12.0963C232.539 12.9501 233.09 14.0506 233.109 15.3978Z" fill="#000D1A"/>
</svg>
