<svg width="233" height="37" viewBox="0 0 233 37" fill="none" xmlns="http://www.w3.org/2000/svg">
<path d="M68.3942 15.3978H64.4096C64.3907 14.7906 64.1724 14.3637 63.755 14.1171C63.3376 13.8514 62.6165 13.7186 61.5919 13.7186C60.093 13.7186 59.3435 14.155 59.3435 15.0278C59.3435 15.5401 59.7989 15.9197 60.7096 16.1663L65.6619 17.5609C67.6353 18.1112 68.6219 19.3635 68.6219 21.3178C68.6219 22.8548 68.0242 24.0975 66.8289 25.0463C65.7093 25.9191 64.0965 26.3555 61.9904 26.3555C59.4099 26.3555 57.5599 25.976 56.4404 25.2171C55.3399 24.496 54.7516 23.3291 54.6758 21.7163H58.575C58.6889 22.3424 58.9545 22.7598 59.3719 22.9686C59.8084 23.1774 60.6053 23.2817 61.7627 23.2817C63.717 23.2817 64.6942 22.8168 64.6942 21.8871C64.6942 21.3368 64.2578 20.9289 63.385 20.6632L58.7173 19.2401C57.5219 18.8797 56.7061 18.4621 56.2696 17.9878C55.7004 17.3997 55.4158 16.6028 55.4158 15.5971C55.4158 13.9463 56.0419 12.675 57.2942 11.7832C58.3947 11.0242 59.8369 10.6448 61.6204 10.6448C63.7835 10.6448 65.4912 11.1286 66.7435 12.0963C67.825 12.9501 68.3753 14.0506 68.3942 15.3978ZM71.3799 10.9578H75.2791V12.7794C76.4365 11.3563 77.8122 10.6448 79.406 10.6448C81.3603 10.6448 82.7265 11.3848 83.5045 12.8648C84.6429 11.3848 86.1134 10.6448 87.916 10.6448C89.4339 10.6448 90.6103 11.0622 91.4452 11.8971C92.2991 12.713 92.726 13.8514 92.726 15.3124V26.0424H88.8268V15.9386C88.8268 14.6294 88.1152 13.9748 86.6922 13.9748C85.8572 13.9748 85.2026 14.2404 84.7283 14.7717C84.2539 15.284 84.0168 16.0051 84.0168 16.9348V26.0424H80.0891V15.9386C80.0891 14.6294 79.3869 13.9748 77.9829 13.9748C77.148 13.9748 76.4934 14.2404 76.0191 14.7717C75.5446 15.284 75.3075 16.0051 75.3075 16.9348V26.0424H71.3799V10.9578ZM109.232 25.0463V26.0424H104.963C104.678 25.682 104.527 25.1697 104.508 24.5055C103.464 25.7389 101.946 26.3555 99.9538 26.3555C98.4929 26.3555 97.3164 25.9097 96.4246 25.0178C95.7037 24.2968 95.343 23.3006 95.343 22.0294C95.343 20.132 96.1021 18.7848 97.62 17.9878C98.2652 17.6463 99.546 17.3048 101.462 16.9632L104.536 16.394L104.508 15.3124C104.489 14.3068 103.73 13.804 102.231 13.804C101.263 13.804 100.58 13.9558 100.182 14.2594C99.8021 14.544 99.5649 15.0752 99.47 15.8532H95.713C95.9407 12.3809 98.0849 10.6448 102.145 10.6448C104.384 10.6448 105.997 11.0432 106.984 11.8401C107.876 12.5991 108.322 13.7471 108.322 15.284V23.7086C108.322 24.3917 108.625 24.8375 109.232 25.0463ZM104.536 18.7563L101.662 19.4109C100.846 19.6006 100.238 19.8758 99.84 20.2363C99.4606 20.5968 99.2707 21.0428 99.2707 21.574C99.2707 22.6555 99.9729 23.1963 101.377 23.1963C103.407 23.1963 104.451 22.0863 104.508 19.8663L104.536 18.7563ZM111.876 10.9578H115.804V13.8324C116.297 11.7073 117.701 10.6448 120.016 10.6448C120.377 10.6448 120.633 10.6448 120.785 10.6448L120.813 14.5155C120.339 14.4206 119.846 14.3732 119.333 14.3732C118.043 14.3732 117.151 14.6104 116.658 15.0848C116.089 15.616 115.804 16.5743 115.804 17.9594V26.0424H111.876V10.9578ZM129.888 10.9578V13.5478H127.241V21.944C127.241 22.4943 127.336 22.8737 127.526 23.0824C127.734 23.2912 128.104 23.3955 128.635 23.3955C129.072 23.3955 129.632 23.2248 130.315 22.8832C130.372 22.8452 130.419 22.8168 130.457 22.7978L130.912 25.4732C129.717 26.0614 128.465 26.3555 127.156 26.3555C124.594 26.3555 123.313 25.1791 123.313 22.8263V13.5478H121.378V10.9578H123.313V8.45322L127.241 6.20476V10.9578H129.888ZM133.445 10.9578H137.344V12.7794C138.502 11.3563 139.877 10.6448 141.471 10.6448C143.426 10.6448 144.792 11.3848 145.569 12.8648C146.708 11.3848 148.179 10.6448 149.981 10.6448C151.499 10.6448 152.676 11.0622 153.51 11.8971C154.364 12.713 154.791 13.8514 154.791 15.3124V26.0424H150.891V15.9386C150.891 14.6294 150.18 13.9748 148.757 13.9748C147.923 13.9748 147.268 14.2404 146.793 14.7717C146.319 15.284 146.081 16.0051 146.081 16.9348V26.0424H142.154V15.9386C142.154 14.6294 141.452 13.9748 140.048 13.9748C139.213 13.9748 138.558 14.2404 138.084 14.7717C137.61 15.284 137.373 16.0051 137.373 16.9348V26.0424H133.445V10.9578ZM171.525 19.5248H161.392C161.449 20.7391 161.64 21.6024 161.962 22.1148C162.512 22.9497 163.376 23.3671 164.552 23.3671C166.013 23.3671 166.991 22.7598 167.483 21.5455H171.354C170.918 23.0255 170.065 24.202 168.792 25.0748C167.54 25.9286 166.07 26.3555 164.381 26.3555C162.085 26.3555 160.321 25.5871 159.087 24.0501C158.005 22.7029 157.465 20.9289 157.465 18.7278C157.465 16.0524 158.168 13.9842 159.571 12.5232C160.805 11.2709 162.427 10.6448 164.438 10.6448C165.975 10.6448 167.322 11.0242 168.479 11.7832C169.638 12.5422 170.463 13.6048 170.955 14.9709C171.354 16.0335 171.553 17.3143 171.553 18.8132C171.553 19.0029 171.545 19.2401 171.525 19.5248ZM167.455 16.9348C167.265 14.7337 166.251 13.6332 164.409 13.6332C162.683 13.6332 161.697 14.7337 161.449 16.9348H167.455ZM181.446 10.9578V13.5478H178.799V21.944C178.799 22.4943 178.895 22.8737 179.084 23.0824C179.293 23.2912 179.663 23.3955 180.194 23.3955C180.631 23.3955 181.19 23.2248 181.873 22.8832C181.93 22.8452 181.979 22.8168 182.016 22.7978L182.471 25.4732C181.276 26.0614 180.023 26.3555 178.714 26.3555C176.152 26.3555 174.872 25.1791 174.872 22.8263V13.5478H172.936V10.9578H174.872V8.45322L178.799 6.20476V10.9578H181.446ZM185.004 10.9578H188.932V13.8324C189.424 11.7073 190.829 10.6448 193.144 10.6448C193.504 10.6448 193.76 10.6448 193.912 10.6448L193.941 14.5155C193.466 14.4206 192.973 14.3732 192.461 14.3732C191.17 14.3732 190.278 14.6104 189.786 15.0848C189.216 15.616 188.932 16.5743 188.932 17.9594V26.0424H185.004V10.9578ZM199.855 10.9578V26.0424H195.928V10.9578H199.855ZM197.863 5.77783C198.375 5.77783 198.802 5.95809 199.144 6.3186C199.505 6.67911 199.684 7.11552 199.684 7.62783C199.684 8.14014 199.505 8.57655 199.144 8.93706C198.802 9.2786 198.375 9.44937 197.863 9.44937C197.351 9.44937 196.915 9.2786 196.554 8.93706C196.194 8.57655 196.013 8.14014 196.013 7.62783C196.013 7.11552 196.194 6.67911 196.554 6.3186C196.915 5.95809 197.351 5.77783 197.863 5.77783ZM216.404 16.4794H212.676C212.448 15.4928 212.116 14.8001 211.68 14.4017C211.263 14.0032 210.665 13.804 209.886 13.804C208.711 13.804 207.894 14.2214 207.439 15.0563C206.946 16.024 206.699 17.2098 206.699 18.614C206.699 20.0371 206.975 21.166 207.524 22.0009C208.093 22.8168 208.872 23.2248 209.858 23.2248C210.636 23.2248 211.234 23.0255 211.651 22.6271C212.088 22.2097 212.43 21.5266 212.676 20.5778H216.404C216.215 22.4752 215.456 23.9458 214.127 24.9894C212.97 25.9191 211.537 26.384 209.83 26.384C207.439 26.384 205.627 25.6155 204.393 24.0786C203.312 22.7504 202.771 20.9574 202.771 18.6994C202.771 15.9671 203.483 13.8989 204.906 12.4948C206.14 11.2614 207.809 10.6448 209.915 10.6448C211.927 10.6448 213.521 11.2235 214.697 12.3809C215.703 13.4055 216.272 14.7717 216.404 16.4794ZM231.687 15.3978H227.702C227.684 14.7906 227.464 14.3637 227.047 14.1171C226.63 13.8514 225.909 13.7186 224.884 13.7186C223.386 13.7186 222.636 14.155 222.636 15.0278C222.636 15.5401 223.091 15.9197 224.002 16.1663L228.954 17.5609C230.928 18.1112 231.914 19.3635 231.914 21.3178C231.914 22.8548 231.317 24.0975 230.121 25.0463C229.001 25.9191 227.389 26.3555 225.283 26.3555C222.703 26.3555 220.853 25.976 219.733 25.2171C218.633 24.496 218.044 23.3291 217.968 21.7163H221.867C221.981 22.3424 222.247 22.7598 222.664 22.9686C223.101 23.1774 223.898 23.2817 225.055 23.2817C227.009 23.2817 227.987 22.8168 227.987 21.8871C227.987 21.3368 227.55 20.9289 226.677 20.6632L222.01 19.2401C220.814 18.8797 219.999 18.4621 219.562 17.9878C218.993 17.3997 218.708 16.6028 218.708 15.5971C218.708 13.9463 219.334 12.675 220.587 11.7832C221.687 11.0242 223.13 10.6448 224.913 10.6448C227.076 10.6448 228.784 11.1286 230.036 12.0963C231.117 12.9501 231.668 14.0506 231.687 15.3978Z" fill="white"/>
<path fill-rule="evenodd" clip-rule="evenodd" d="M41.1269 0H30.0269L25.8125 7.82692H28.6038L30.0269 5.18408V37H41.1269V0ZM4.98077 18.5H16.0808V30.3928L12.5231 37H4.98077V23.6841L3.55769 26.3269L2.79145 27.75H0L4.98077 18.5ZM17.5038 9.25L13.2894 17.0769H16.0808L17.5038 14.4341V37H25.0462L28.6038 30.3928V9.25H17.5038Z" fill="white"/>
</svg>
