<svg width="255" height="40" viewBox="0 0 255 40" fill="none" xmlns="http://www.w3.org/2000/svg">
<g clip-path="url(#clip0_1242_3617)">
<path d="M46.5 0H32.5V40H46.5V0Z" fill="#1262B3"/>
<path d="M5.5 20V30H0.5L5.5 20Z" fill="#418DD9"/>
<path d="M19.5 10V20H14.5L19.5 10Z" fill="#1262B3"/>
<path fill-rule="evenodd" clip-rule="evenodd" d="M19.5 20H5.5V40H13.9318L19.5 30V20Z" fill="#79B6F2"/>
<path fill-rule="evenodd" clip-rule="evenodd" d="M33.5 10H19.5V40H27.9318L33.5 30V10Z" fill="#418DD9"/>
<path d="M32.5 0V10H27.5L32.5 0Z" fill="#0D4680"/>
<path d="M76.361 16.2707H72.0445C72.024 15.6224 71.7876 15.1666 71.3354 14.9033C70.8833 14.6197 70.1021 14.4779 68.9922 14.4779C67.3684 14.4779 66.5564 14.9438 66.5564 15.8757C66.5564 16.4227 67.0498 16.8279 68.0364 17.0912L73.4011 18.5801C75.5389 19.1676 76.6077 20.5047 76.6077 22.5912C76.6077 24.232 75.9602 25.5589 74.6653 26.5718C73.4525 27.5036 71.7054 27.9696 69.4238 27.9696C66.6284 27.9696 64.6244 27.5644 63.4116 26.7541C62.2195 25.9843 61.5822 24.7384 61.5 23.0166H65.724C65.8473 23.6851 66.1351 24.1307 66.5873 24.3536C67.0601 24.5765 67.9234 24.6878 69.1772 24.6878C71.2942 24.6878 72.3529 24.1915 72.3529 23.1989C72.3529 22.6114 71.88 22.1759 70.9346 21.8923L65.8781 20.3729C64.5832 19.9881 63.6994 19.5423 63.2266 19.0359C62.6099 18.408 62.3016 17.5571 62.3016 16.4834C62.3016 14.721 62.9799 13.3637 64.3365 12.4116C65.5287 11.6013 67.0909 11.1961 69.023 11.1961C71.3662 11.1961 73.2162 11.7127 74.5728 12.7459C75.7444 13.6575 76.3405 14.8324 76.361 16.2707ZM79.5953 11.5304H83.8193V13.4751C85.0731 11.9558 86.5633 11.1961 88.2899 11.1961C90.407 11.1961 91.8869 11.9862 92.7297 13.5663C93.963 11.9862 95.5559 11.1961 97.5087 11.1961C99.1529 11.1961 100.427 11.6418 101.332 12.5331C102.257 13.4042 102.719 14.6197 102.719 16.1796V27.6354H98.4953V16.8481C98.4953 15.4503 97.7245 14.7514 96.1829 14.7514C95.2784 14.7514 94.5693 15.035 94.0555 15.6022C93.5415 16.1492 93.2847 16.919 93.2847 17.9116V27.6354H89.0299V16.8481C89.0299 15.4503 88.2692 14.7514 86.7483 14.7514C85.8439 14.7514 85.1347 15.035 84.6209 15.6022C84.1069 16.1492 83.8501 16.919 83.8501 17.9116V27.6354H79.5953V11.5304ZM120.6 26.5718V27.6354H115.975C115.667 27.2505 115.503 26.7036 115.482 25.9945C114.352 27.3113 112.707 27.9696 110.549 27.9696C108.966 27.9696 107.692 27.4936 106.726 26.5414C105.945 25.7716 105.554 24.7081 105.554 23.3508C105.554 21.3251 106.377 19.8867 108.021 19.0359C108.72 18.6713 110.107 18.3066 112.183 17.942L115.513 17.3343L115.482 16.1796C115.462 15.1058 114.64 14.5691 113.016 14.5691C111.967 14.5691 111.227 14.7311 110.796 15.0552C110.385 15.3591 110.128 15.9263 110.025 16.7569H105.955C106.202 13.0497 108.524 11.1961 112.923 11.1961C115.349 11.1961 117.096 11.6215 118.165 12.4724C119.131 13.2827 119.614 14.5083 119.614 16.1492V25.1437C119.614 25.8729 119.943 26.3489 120.6 26.5718ZM115.513 19.8564L112.399 20.5552C111.515 20.7578 110.857 21.0516 110.426 21.4365C110.015 21.8213 109.809 22.2975 109.809 22.8646C109.809 24.0193 110.57 24.5967 112.091 24.5967C114.29 24.5967 115.421 23.4116 115.482 21.0414L115.513 19.8564ZM123.465 11.5304H127.719V14.5994C128.254 12.3306 129.775 11.1961 132.283 11.1961C132.673 11.1961 132.951 11.1961 133.115 11.1961L133.146 15.3287C132.632 15.2274 132.098 15.1768 131.543 15.1768C130.145 15.1768 129.179 15.4301 128.644 15.9365C128.028 16.5036 127.719 17.5268 127.719 19.0055V27.6354H123.465V11.5304ZM142.976 11.5304V14.2956H140.109V23.2597C140.109 23.8472 140.212 24.2523 140.417 24.4751C140.643 24.698 141.044 24.8094 141.62 24.8094C142.092 24.8094 142.699 24.6271 143.439 24.2624C143.5 24.2219 143.552 24.1915 143.593 24.1713L144.086 27.0276C142.791 27.6556 141.435 27.9696 140.016 27.9696C137.241 27.9696 135.854 26.7136 135.854 24.2017V14.2956H133.757V11.5304H135.854V8.85635L140.109 6.4558V11.5304H142.976ZM146.83 11.5304H151.053V13.4751C152.307 11.9558 153.798 11.1961 155.524 11.1961C157.642 11.1961 159.122 11.9862 159.963 13.5663C161.197 11.9862 162.791 11.1961 164.742 11.1961C166.387 11.1961 167.662 11.6418 168.566 12.5331C169.491 13.4042 169.953 14.6197 169.953 16.1796V27.6354H165.729V16.8481C165.729 15.4503 164.958 14.7514 163.417 14.7514C162.513 14.7514 161.804 15.035 161.289 15.6022C160.776 16.1492 160.518 16.919 160.518 17.9116V27.6354H156.264V16.8481C156.264 15.4503 155.504 14.7514 153.982 14.7514C153.078 14.7514 152.369 15.035 151.855 15.6022C151.341 16.1492 151.084 16.919 151.084 17.9116V27.6354H146.83V11.5304ZM188.081 20.6768H177.105C177.166 21.9732 177.373 22.895 177.721 23.442C178.318 24.3334 179.254 24.779 180.527 24.779C182.11 24.779 183.169 24.1307 183.703 22.8343H187.896C187.424 24.4144 186.499 25.6704 185.121 26.6022C183.764 27.5138 182.172 27.9696 180.342 27.9696C177.855 27.9696 175.944 27.1492 174.607 25.5083C173.436 24.0699 172.85 22.1759 172.85 19.826C172.85 16.9696 173.611 14.7615 175.131 13.2017C176.468 11.8646 178.225 11.1961 180.404 11.1961C182.068 11.1961 183.528 11.6013 184.782 12.4116C186.037 13.2219 186.931 14.3564 187.464 15.8149C187.896 16.9494 188.112 18.3168 188.112 19.9171C188.112 20.1197 188.102 20.3729 188.081 20.6768ZM183.672 17.9116C183.467 15.5616 182.368 14.3867 180.373 14.3867C178.503 14.3867 177.434 15.5616 177.166 17.9116H183.672ZM198.829 11.5304V14.2956H195.961V23.2597C195.961 23.8472 196.065 24.2523 196.27 24.4751C196.496 24.698 196.897 24.8094 197.472 24.8094C197.945 24.8094 198.551 24.6271 199.291 24.2624C199.353 24.2219 199.405 24.1915 199.445 24.1713L199.939 27.0276C198.644 27.6556 197.287 27.9696 195.869 27.9696C193.094 27.9696 191.707 26.7136 191.707 24.2017V14.2956H189.61V11.5304H191.707V8.85635L195.961 6.4558V11.5304H198.829ZM202.683 11.5304H206.938V14.5994C207.471 12.3306 208.992 11.1961 211.501 11.1961C211.891 11.1961 212.168 11.1961 212.333 11.1961L212.364 15.3287C211.849 15.2274 211.316 15.1768 210.761 15.1768C209.362 15.1768 208.396 15.4301 207.863 15.9365C207.246 16.5036 206.938 17.5268 206.938 19.0055V27.6354H202.683V11.5304ZM218.771 11.5304V27.6354H214.516V11.5304H218.771ZM216.613 6C217.168 6 217.63 6.19245 218 6.57735C218.392 6.96224 218.586 7.42818 218.586 7.97514C218.586 8.5221 218.392 8.98803 218 9.37293C217.63 9.73757 217.168 9.91989 216.613 9.91989C216.058 9.91989 215.586 9.73757 215.194 9.37293C214.804 8.98803 214.609 8.5221 214.609 7.97514C214.609 7.42818 214.804 6.96224 215.194 6.57735C215.586 6.19245 216.058 6 216.613 6ZM236.698 17.4254H232.659C232.412 16.3721 232.053 15.6326 231.58 15.2072C231.128 14.7818 230.481 14.5691 229.638 14.5691C228.364 14.5691 227.479 15.0147 226.986 15.9061C226.453 16.9392 226.184 18.2053 226.184 19.7044C226.184 21.2238 226.483 22.4291 227.079 23.3204C227.695 24.1915 228.538 24.6271 229.607 24.6271C230.45 24.6271 231.098 24.4144 231.549 23.989C232.022 23.5433 232.392 22.814 232.659 21.8011H236.698C236.493 23.8268 235.671 25.3969 234.232 26.5111C232.978 27.5036 231.426 28 229.576 28C226.986 28 225.024 27.1796 223.687 25.5387C222.515 24.1207 221.93 22.2063 221.93 19.7956C221.93 16.8785 222.7 14.6704 224.242 13.1713C225.579 11.8545 227.387 11.1961 229.668 11.1961C231.848 11.1961 233.575 11.814 234.848 13.0497C235.938 14.1436 236.555 15.6022 236.698 17.4254ZM253.253 16.2707H248.937C248.917 15.6224 248.679 15.1666 248.228 14.9033C247.776 14.6197 246.994 14.4779 245.885 14.4779C244.261 14.4779 243.449 14.9438 243.449 15.8757C243.449 16.4227 243.942 16.8279 244.929 17.0912L250.293 18.5801C252.432 19.1676 253.5 20.5047 253.5 22.5912C253.5 24.232 252.853 25.5589 251.558 26.5718C250.344 27.5036 248.598 27.9696 246.316 27.9696C243.521 27.9696 241.517 27.5644 240.304 26.7541C239.112 25.9843 238.474 24.7384 238.392 23.0166H242.616C242.74 23.6851 243.028 24.1307 243.48 24.3536C243.953 24.5765 244.816 24.6878 246.07 24.6878C248.186 24.6878 249.245 24.1915 249.245 23.1989C249.245 22.6114 248.772 22.1759 247.827 21.8923L242.77 20.3729C241.476 19.9881 240.592 19.5423 240.119 19.0359C239.502 18.408 239.194 17.5571 239.194 16.4834C239.194 14.721 239.872 13.3637 241.229 12.4116C242.421 11.6013 243.984 11.1961 245.915 11.1961C248.259 11.1961 250.108 11.7127 251.465 12.7459C252.637 13.6575 253.233 14.8324 253.253 16.2707Z" fill="white"/>
</g>
<defs>
<clipPath id="clip0_1242_3617">
<rect width="254" height="40" fill="white" transform="translate(0.5)"/>
</clipPath>
</defs>
</svg>
