<svg width="234" height="37" viewBox="0 0 234 37" fill="none" xmlns="http://www.w3.org/2000/svg">
<g clip-path="url(#clip0_1092_2848)">
<path d="M42 0H30V37H42V0Z" fill="#1262B3"/>
<path d="M5 19V28H0L5 19Z" fill="#418DD9"/>
<path d="M17 9V18H12L17 9Z" fill="#1262B3"/>
<path fill-rule="evenodd" clip-rule="evenodd" d="M17 19H5V38H12.2273L17 28.5V19Z" fill="#79B6F2"/>
<path fill-rule="evenodd" clip-rule="evenodd" d="M29 9H17V37H24.2273L29 27.6667V9Z" fill="#418DD9"/>
<path d="M30 0V9H25L30 0Z" fill="#0D4680"/>
<path d="M69.7 15.8039H65.7207C65.7018 15.185 65.4838 14.75 65.067 14.4986C64.6502 14.2279 63.9301 14.0925 62.9068 14.0925C61.4099 14.0925 60.6614 14.5373 60.6614 15.4268C60.6614 15.9489 61.1162 16.3357 62.0257 16.587L66.9714 18.0083C68.9421 18.5691 69.9274 19.8454 69.9274 21.837C69.9274 23.4033 69.3305 24.6698 68.1367 25.6367C67.0187 26.5262 65.4081 26.971 63.3048 26.971C60.7278 26.971 58.8803 26.5842 57.7622 25.8108C56.6633 25.0759 56.0757 23.8867 56 22.2431H59.894C60.0077 22.8812 60.273 23.3066 60.6898 23.5193C61.1257 23.7321 61.9216 23.8384 63.0774 23.8384C65.0291 23.8384 66.005 23.3646 66.005 22.4171C66.005 21.8563 65.5691 21.4407 64.6975 21.1699L60.0361 19.7196C58.8423 19.3523 58.0276 18.9267 57.5917 18.4434C57.0232 17.844 56.739 17.0318 56.739 16.0069C56.739 14.3246 57.3643 13.029 58.6149 12.1202C59.7139 11.3467 61.1541 10.9599 62.9353 10.9599C65.0954 10.9599 66.8008 11.453 68.0514 12.4392C69.1315 13.3094 69.6811 14.4309 69.7 15.8039ZM72.6816 11.279H76.5756V13.1354C77.7314 11.6851 79.1052 10.9599 80.6969 10.9599C82.6486 10.9599 84.0129 11.7141 84.7899 13.2224C85.9268 11.7141 87.3953 10.9599 89.1955 10.9599C90.7113 10.9599 91.8862 11.3854 92.72 12.2362C93.5727 13.0677 93.999 14.2279 93.999 15.7169V26.6519H90.105V16.355C90.105 15.0207 89.3945 14.3536 87.9733 14.3536C87.1395 14.3536 86.4858 14.6244 86.0121 15.1657C85.5383 15.6878 85.3015 16.4227 85.3015 17.3702V26.6519H81.3791V16.355C81.3791 15.0207 80.6779 14.3536 79.2758 14.3536C78.442 14.3536 77.7883 14.6244 77.3146 15.1657C76.8408 15.6878 76.604 16.4227 76.604 17.3702V26.6519H72.6816V11.279ZM110.483 25.6367V26.6519H106.22C105.935 26.2846 105.784 25.7625 105.765 25.0856C104.723 26.3426 103.207 26.971 101.217 26.971C99.7581 26.971 98.5833 26.5166 97.6926 25.6077C96.9727 24.8729 96.6125 23.8577 96.6125 22.5622C96.6125 20.6285 97.3706 19.2555 98.8864 18.4434C99.5307 18.0953 100.81 17.7472 102.724 17.3992L105.793 16.8191L105.765 15.7169C105.746 14.6919 104.988 14.1796 103.491 14.1796C102.525 14.1796 101.842 14.3343 101.444 14.6436C101.066 14.9337 100.829 15.4751 100.734 16.268H96.982C97.2094 12.7293 99.3507 10.9599 103.406 10.9599C105.642 10.9599 107.252 11.366 108.238 12.1782C109.128 12.9517 109.574 14.1215 109.574 15.6878V24.2735C109.574 24.9696 109.877 25.424 110.483 25.6367ZM105.793 19.2265L102.922 19.8936C102.108 20.087 101.501 20.3675 101.103 20.7348C100.725 21.1022 100.535 21.5567 100.535 22.0981C100.535 23.2003 101.236 23.7514 102.638 23.7514C104.666 23.7514 105.708 22.6202 105.765 20.3577L105.793 19.2265ZM113.124 11.279H117.046V14.2086C117.539 12.0428 118.941 10.9599 121.253 10.9599C121.613 10.9599 121.868 10.9599 122.02 10.9599L122.048 14.9047C121.575 14.808 121.082 14.7597 120.57 14.7597C119.282 14.7597 118.391 15.0014 117.899 15.4848C117.33 16.0262 117.046 17.0028 117.046 18.4144V26.6519H113.124V11.279ZM131.111 11.279V13.9185H128.467V22.4751C128.467 23.036 128.562 23.4226 128.752 23.6354C128.96 23.8481 129.33 23.9544 129.86 23.9544C130.296 23.9544 130.855 23.7804 131.537 23.4323C131.594 23.3936 131.641 23.3646 131.679 23.3453L132.134 26.0718C130.94 26.6712 129.69 26.971 128.382 26.971C125.824 26.971 124.545 25.7721 124.545 23.3743V13.9185H122.612V11.279H124.545V8.72652L128.467 6.43508V11.279H131.111ZM134.663 11.279H138.557V13.1354C139.713 11.6851 141.087 10.9599 142.678 10.9599C144.631 10.9599 145.995 11.7141 146.771 13.2224C147.908 11.7141 149.377 10.9599 151.177 10.9599C152.693 10.9599 153.868 11.3854 154.701 12.2362C155.554 13.0677 155.98 14.2279 155.98 15.7169V26.6519H152.086V16.355C152.086 15.0207 151.376 14.3536 149.954 14.3536C149.122 14.3536 148.468 14.6244 147.993 15.1657C147.52 15.6878 147.283 16.4227 147.283 17.3702V26.6519H143.36V16.355C143.36 15.0207 142.66 14.3536 141.257 14.3536C140.424 14.3536 139.77 14.6244 139.296 15.1657C138.822 15.6878 138.586 16.4227 138.586 17.3702V26.6519H134.663V11.279ZM172.692 20.0097H162.573C162.63 21.2472 162.82 22.1271 163.141 22.6492C163.691 23.5 164.554 23.9254 165.728 23.9254C167.187 23.9254 168.164 23.3066 168.655 22.0691H172.521C172.086 23.5773 171.233 24.7763 169.963 25.6657C168.712 26.5359 167.244 26.971 165.557 26.971C163.265 26.971 161.503 26.1878 160.271 24.6215C159.191 23.2486 158.651 21.4407 158.651 19.1975C158.651 16.471 159.353 14.3633 160.754 12.8743C161.986 11.5981 163.606 10.9599 165.614 10.9599C167.149 10.9599 168.495 11.3467 169.65 12.1202C170.807 12.8936 171.631 13.9765 172.123 15.3688C172.521 16.4517 172.72 17.757 172.72 19.2845C172.72 19.4779 172.711 19.7196 172.692 20.0097ZM168.627 17.3702C168.438 15.127 167.425 14.0055 165.586 14.0055C163.862 14.0055 162.877 15.127 162.63 17.3702H168.627ZM182.6 11.279V13.9185H179.957V22.4751C179.957 23.036 180.052 23.4226 180.241 23.6354C180.45 23.8481 180.819 23.9544 181.349 23.9544C181.786 23.9544 182.344 23.7804 183.026 23.4323C183.083 23.3936 183.131 23.3646 183.168 23.3453L183.623 26.0718C182.429 26.6712 181.179 26.971 179.871 26.971C177.313 26.971 176.034 25.7721 176.034 23.3743V13.9185H174.101V11.279H176.034V8.72652L179.957 6.43508V11.279H182.6ZM186.153 11.279H190.075V14.2086C190.567 12.0428 191.97 10.9599 194.282 10.9599C194.641 10.9599 194.897 10.9599 195.049 10.9599L195.078 14.9047C194.603 14.808 194.111 14.7597 193.6 14.7597C192.311 14.7597 191.42 15.0014 190.928 15.4848C190.359 16.0262 190.075 17.0028 190.075 18.4144V26.6519H186.153V11.279ZM200.984 11.279V26.6519H197.062V11.279H200.984ZM198.994 6C199.506 6 199.932 6.18371 200.273 6.55111C200.634 6.9185 200.814 7.36326 200.814 7.88536C200.814 8.40746 200.634 8.85222 200.273 9.21961C199.932 9.56768 199.506 9.74171 198.994 9.74171C198.483 9.74171 198.048 9.56768 197.687 9.21961C197.327 8.85222 197.147 8.40746 197.147 7.88536C197.147 7.36326 197.327 6.9185 197.687 6.55111C198.048 6.18371 198.483 6 198.994 6ZM217.511 16.9061H213.787C213.56 15.9006 213.229 15.1948 212.793 14.7887C212.376 14.3826 211.779 14.1796 211.002 14.1796C209.828 14.1796 209.012 14.605 208.557 15.4558C208.066 16.442 207.818 17.6505 207.818 19.0815C207.818 20.5318 208.094 21.6823 208.643 22.5332C209.211 23.3646 209.989 23.7804 210.973 23.7804C211.751 23.7804 212.348 23.5773 212.764 23.1713C213.2 22.7459 213.541 22.0498 213.787 21.0829H217.511C217.322 23.0165 216.564 24.5152 215.237 25.5787C214.082 26.5262 212.65 27 210.945 27C208.557 27 206.748 26.2169 205.516 24.6506C204.436 23.297 203.896 21.4697 203.896 19.1685C203.896 16.384 204.607 14.2762 206.028 12.8453C207.26 11.5884 208.927 10.9599 211.03 10.9599C213.04 10.9599 214.631 11.5497 215.805 12.7293C216.81 13.7735 217.379 15.1657 217.511 16.9061ZM232.773 15.8039H228.793C228.775 15.185 228.556 14.75 228.14 14.4986C227.723 14.2279 227.003 14.0925 225.979 14.0925C224.483 14.0925 223.734 14.5373 223.734 15.4268C223.734 15.9489 224.189 16.3357 225.098 16.587L230.044 18.0083C232.015 18.5691 233 19.8454 233 21.837C233 23.4033 232.403 24.6698 231.209 25.6367C230.091 26.5262 228.481 26.971 226.377 26.971C223.801 26.971 221.953 26.5842 220.835 25.8108C219.736 25.0759 219.148 23.8867 219.073 22.2431H222.967C223.08 22.8812 223.346 23.3066 223.762 23.5193C224.199 23.7321 224.995 23.8384 226.15 23.8384C228.101 23.8384 229.078 23.3646 229.078 22.4171C229.078 21.8563 228.641 21.4407 227.77 21.1699L223.109 19.7196C221.915 19.3523 221.101 18.9267 220.664 18.4434C220.096 17.844 219.812 17.0318 219.812 16.0069C219.812 14.3246 220.437 13.029 221.688 12.1202C222.786 11.3467 224.227 10.9599 226.008 10.9599C228.168 10.9599 229.873 11.453 231.124 12.4392C232.204 13.3094 232.754 14.4309 232.773 15.8039Z" fill="#000D1A"/>
</g>
<defs>
<clipPath id="clip0_1092_2848">
<rect width="234" height="37" fill="white"/>
</clipPath>
</defs>
</svg>
