<svg width="81" height="20" viewBox="0 0 81 20" fill="none" xmlns="http://www.w3.org/2000/svg">
<path fill-rule="evenodd" clip-rule="evenodd" d="M43.5242 4.89221C43.7165 5.09307 45.4478 9.87815 45.6289 10.4689C45.8092 11.1018 46.0638 11.709 46.387 12.2766C46.9867 12.4184 47.0433 11.7922 47.2244 11.296C48.2088 8.61395 49.7025 4.70317 50.4493 2.06842C50.9698 0.792396 51.0151 0.44976 50.0759 0.44976C49.1367 0.44976 49.2385 1.08777 48.8651 1.91482C48.537 3.48622 47.2696 6.80625 46.8057 8.33038C46.8057 8.53124 46.8057 8.53124 46.5681 8.53124C45.7873 6.26275 44.882 3.48622 43.9994 1.24137C43.7618 0.804211 43.3431 0.709691 43.0602 1.69034C42.585 3.24992 41.9287 5.10488 41.4195 6.61721C41.4195 6.61721 40.8084 8.53124 40.7632 8.62576C40.4396 8.08248 40.2026 7.48793 40.0616 6.86532C39.3601 5.05762 38.749 3.10814 38.1493 1.30044C38.0022 0.957806 38.0022 0.756951 37.674 0.556095C37.3451 0.428826 36.9895 0.396182 36.6443 0.461575C35.7164 0.61517 36.3162 1.39496 36.5085 1.9739C37.6401 5.15214 38.8961 8.9684 40.1521 11.993C40.1815 12.068 40.2293 12.1335 40.2907 12.183C40.3521 12.2325 40.4249 12.2643 40.5018 12.2751C40.5786 12.2859 40.6569 12.2753 40.7286 12.2445C40.8003 12.2136 40.863 12.1636 40.9103 12.0994C41.0913 11.7331 43.3884 4.89221 43.5242 4.89221Z" fill="white"/>
<path fill-rule="evenodd" clip-rule="evenodd" d="M0.705762 0.649804C0.658987 0.846626 0.674876 1.054 0.751025 1.24055C0.943389 2.06761 0.377611 11.496 0.524713 11.8741C0.982739 12.0891 1.49626 12.139 1.98442 12.0159C2.21073 11.7677 2.12021 11.5314 2.12021 11.1415C2.12021 9.47563 2.25599 7.86878 2.25599 6.15561C2.31257 5.51759 2.35783 5.08044 2.35783 4.69054C2.35783 4.30065 2.35783 4.34791 2.44836 4.25339C2.53888 4.15887 4.02122 6.85269 4.16832 7.14807C4.45121 7.72701 5.00568 8.61313 5.37909 9.2984C5.94487 10.3736 6.22776 9.64104 6.36354 9.39292C6.69169 8.95577 9.22638 4.31246 9.40743 4.21794C9.57716 4.40698 9.57716 9.05029 9.57716 9.39292C9.57716 11.9332 9.29427 12.1813 10.8332 12.0749C11.3084 12.0749 11.3537 11.685 11.3084 11.2479C11.3084 10.4208 11.3084 9.48744 11.3084 8.66039C11.184 6.55732 11.0934 4.15887 11.0934 2.06761C11.0934 1.81949 11.184 0.886104 11.184 0.744324C11.0454 0.581329 10.8578 0.47258 10.652 0.436057C10.4463 0.399535 10.2347 0.437427 10.0524 0.543468C9.72427 0.744324 9.63374 1.18148 9.39612 1.47686C8.44561 3.23729 7.16695 5.23403 6.27302 6.89995C5.94487 7.4907 5.94487 7.28985 5.66198 6.89995C5.05094 5.96657 4.25885 4.35972 3.70439 3.42633L2.57283 1.47686C2.41554 1.13807 2.21368 0.823906 1.97311 0.543468C1.65627 0.307168 1.03391 0.496208 0.705762 0.649804Z" fill="white"/>
<path fill-rule="evenodd" clip-rule="evenodd" d="M60.416 6.11967C60.8165 5.77846 61.2916 5.54597 61.799 5.4429C62.3064 5.33983 62.8303 5.36938 63.3241 5.52892C64.8178 6.21419 65.0102 8.51812 64.3539 9.64054C64.0743 10.078 63.6717 10.4141 63.2015 10.6024C62.7313 10.7908 62.2166 10.8221 61.7286 10.6921C61.2559 10.5947 60.8085 10.3933 60.416 10.1013V6.11967ZM60.416 4.45375C60.3455 3.16696 60.3455 1.87702 60.416 0.590235C60.416 0.0585584 60.235 -0.0359618 59.7597 0.153079C58.6282 0.64931 58.6282 0.448454 58.7866 1.52362C58.8771 2.06711 58.7866 8.36452 58.7866 9.25065C58.7866 10.9993 58.549 11.401 60.9818 12.1335C61.6745 12.2852 62.3895 12.2891 63.0837 12.145C63.7779 12.0008 64.437 11.7116 65.0215 11.2946C67.4091 9.25065 66.7528 3.48492 62.3963 3.92207C62.0165 3.94353 61.6385 3.99089 61.2647 4.06385C61.1176 4.11111 60.5631 4.45375 60.4952 4.45375H60.416Z" fill="white"/>
<path fill-rule="evenodd" clip-rule="evenodd" d="M27.4196 11.9806C27.5965 11.3644 27.6467 10.7161 27.5667 10.0783C27.5203 9.40969 27.5203 8.73843 27.5667 8.06978C27.7024 8.06978 27.8496 8.3179 28.1324 8.61327C28.4153 8.90865 30.7463 11.4489 31.1197 11.7324C31.25 11.859 31.4071 11.9518 31.5781 12.0031C31.7492 12.0544 31.9294 12.0629 32.1042 12.0278C32.4324 12.0278 32.9529 12.0278 33.1339 11.7915C33.1339 11.4489 32.4776 10.9054 32.1947 10.61C31.9118 10.3146 31.5497 9.93656 31.2216 9.53485C30.5019 8.87347 29.8287 8.15878 29.2074 7.39633C29.2074 7.28999 31.7761 5.03332 32.2513 4.60798C32.4324 4.40712 32.6247 4.35986 32.5795 4.06449C31.997 3.87689 31.374 3.87689 30.7916 4.06449C30.5653 4.17082 29.0151 5.63589 28.5964 6.02578C28.4606 6.16756 27.6572 7.05369 27.5667 7.00643C27.4309 6.55746 27.5667 0.449089 27.4761 0.106454C27.3856 -0.236182 25.7901 0.307309 25.8354 0.89806C25.9241 1.31313 25.9696 1.73699 25.9712 2.16227V10.61C25.9712 10.9054 25.8806 11.7915 26.073 11.9333C26.5133 12.0508 26.9727 12.0669 27.4196 11.9806Z" fill="white"/>
<path fill-rule="evenodd" clip-rule="evenodd" d="M15.23 7.97422C15.7505 7.83244 17.4931 8.26959 17.5723 8.75401C17.6175 9.27675 17.6175 9.80267 17.5723 10.3254C17.2441 10.7626 14.9923 11.6369 14.2455 10.0773C14.1449 9.85574 14.0927 9.6136 14.0927 9.36839C14.0927 9.12318 14.1449 8.88104 14.2455 8.65949C14.3542 8.47935 14.498 8.3252 14.6677 8.20711C14.8373 8.08902 15.0289 8.00966 15.23 7.97422ZM17.6175 7.38347C17.1779 7.07932 16.6861 6.86669 16.1692 6.75727C15.525 6.68279 14.8733 6.73083 14.2455 6.89905C13.717 7.05712 13.2509 7.3881 12.9159 7.84332C12.5809 8.29854 12.3947 8.85398 12.3846 9.42797C12.3744 10.0019 12.5409 10.5642 12.8596 11.032C13.1783 11.4998 13.6324 11.8485 14.155 12.0268C15.05 12.3454 16.021 12.3454 16.916 12.0268C17.1083 11.9323 17.4818 11.6841 17.6175 11.6369C17.7533 11.5896 17.8099 11.9795 17.991 12.074C18.172 12.1686 19.0207 12.074 19.2583 11.8377C19.4959 11.6014 19.5412 11.6369 19.3941 11.2942C19.1752 10.8421 19.0961 10.3302 19.1678 9.82918V6.3083C19.227 5.80977 19.1103 5.30578 18.8396 4.8905C17.9457 3.03554 12.5595 3.76807 12.9895 5.33947C13.4195 6.91087 14.121 4.79598 16.4973 5.09135C17.776 5.23313 17.6402 6.50916 17.6402 7.38347H17.6175Z" fill="white"/>
<path fill-rule="evenodd" clip-rule="evenodd" d="M73.0115 7.14861H69.1303C69.1823 6.66348 69.3943 6.21236 69.73 5.87259C70.0964 5.53707 70.5568 5.33402 71.0426 5.29365C71.2956 5.27182 71.5503 5.30347 71.7914 5.3867C72.0325 5.46993 72.255 5.60303 72.4457 5.77807C72.6377 5.94299 72.7892 6.15339 72.8876 6.39178C72.986 6.63016 73.0285 6.88963 73.0115 7.14861ZM69.0284 8.41282C69.3113 8.27104 73.5546 8.41282 74.3241 8.41282C75.0936 8.41282 74.7428 5.77807 73.3396 4.7029C72.7664 4.25667 72.084 3.98883 71.3712 3.93028C70.6584 3.87173 69.9443 4.02488 69.3113 4.37203C68.6783 4.71918 68.1522 5.24618 67.7938 5.89219C67.4354 6.5382 67.2593 7.27687 67.2858 8.02292C67.259 8.74753 67.4204 9.46621 67.7531 10.1027C68.0858 10.7393 68.5773 11.2699 69.1755 11.6383C70.4315 12.5244 73.8036 12.4772 74.2222 11.1066C74.7428 9.3462 73.5207 10.3268 73.0907 10.5159C72.7291 10.6707 72.348 10.7702 71.9591 10.8113C69.4584 11.1066 68.8474 8.80271 69.0284 8.41282Z" fill="white"/>
<path fill-rule="evenodd" clip-rule="evenodd" d="M52.0414 7.14679C52.0811 6.64215 52.3009 6.17148 52.6571 5.82795C53.0134 5.48442 53.4802 5.29309 53.9651 5.29183C54.9382 5.18549 56.0698 6.07162 55.8774 7.14679H52.0414ZM51.8491 8.32829C52.0867 8.32829 56.4885 8.32829 57.0995 8.32829C57.7105 8.32829 57.6087 7.93839 57.5634 7.45398C57.5304 6.79795 57.3347 6.16214 56.9955 5.60883C56.6564 5.05551 56.1854 4.60367 55.6287 4.29756C55.072 3.99145 54.4487 3.84157 53.8199 3.86259C53.1911 3.88362 52.5782 4.07484 52.0414 4.41752C51.4379 4.78984 50.9443 5.32869 50.6149 5.97484C50.2855 6.621 50.1331 7.34946 50.1744 8.08017C50.1264 8.8015 50.2819 9.52169 50.6218 10.1517C50.9617 10.7816 51.471 11.2938 52.0867 11.6247C53.6822 12.6526 56.8166 12.2154 57.0995 11.0457C57.0995 10.7031 57.3258 9.86424 56.8166 10.0651C56.2015 10.4282 55.532 10.6798 54.8364 10.8094C54.4656 10.8612 54.0886 10.8356 53.7274 10.7342C53.3661 10.6328 53.0277 10.4576 52.7317 10.2187C52.3243 9.87606 51.668 8.84815 51.8491 8.32829Z" fill="white"/>
<path fill-rule="evenodd" clip-rule="evenodd" d="M77.2637 12.0273C77.5466 11.7319 77.5014 11.5901 77.5014 11.153V9.97149C77.5014 8.4119 77.2185 5.82441 78.9498 5.43451C79.3232 5.33999 79.4137 5.67081 79.889 5.57629C80.1692 5.31375 80.3797 4.98001 80.5 4.60746C80.5 3.86312 79.3684 3.72133 78.3387 4.20575C78.0106 4.35935 77.739 4.89102 77.5014 4.93828C77.5014 4.50113 77.5919 4.31209 77.309 3.92219C76.9463 3.9585 76.5952 4.07533 76.2793 4.26483C75.8153 4.50113 75.7248 4.50113 75.8153 5.09188C75.9059 5.68263 75.8153 9.73519 75.8153 10.704C75.8606 12.1809 75.8606 12.1336 77.2637 12.0273Z" fill="white"/>
<path fill-rule="evenodd" clip-rule="evenodd" d="M22.0914 11.98V11.8855C22.2228 10.6855 22.2568 9.47607 22.1933 8.2701C22.1933 7.33671 22.4196 5.82439 23.404 5.52901C24.1961 5.23363 24.2414 6.01343 24.7619 5.52901C25.9727 4.20573 24.3432 3.67405 23.3588 4.11121C22.3743 4.54836 22.5101 4.891 22.2272 4.98552C22.2045 4.79327 22.2045 4.59883 22.2272 4.40658C22.2272 4.15847 22.1254 4.15847 22.0348 4.01669C21.672 4.0136 21.3155 4.11587 21.0051 4.31206C20.5412 4.5011 20.3941 4.54836 20.5412 5.13911C20.6407 6.04492 20.671 6.95756 20.6317 7.86839V10.5622C20.7336 12.0273 20.5412 12.1336 22.0914 11.98Z" fill="white"/>
<path fill-rule="evenodd" clip-rule="evenodd" d="M43.1953 13.5529C41.3273 13.7935 39.4906 14.2492 37.7186 14.9116C37.1641 15.1598 36.587 15.3015 36.0326 15.5497C34.901 15.9868 33.8374 16.3767 32.7171 16.8257C32.3437 16.9675 29.6732 17.7945 29.2093 17.9009C26.9462 18.4798 23.5515 19.1651 21.3902 18.1372C20.3605 17.6055 20.2587 19.2596 22.601 19.8503C23.9708 20.1008 25.3764 20.0363 26.7199 19.6613C27.8514 19.4132 29.2093 18.976 30.2843 18.6334C31.3592 18.2908 32.6266 17.9009 33.7921 17.5582C34.075 17.4519 34.3013 17.3574 34.6294 17.2628L36.3607 16.7193C36.6889 16.6248 36.9265 16.483 37.2094 16.3767L38.9972 15.9396C39.3254 15.845 39.563 15.7505 39.8459 15.6442C42.2151 15.1165 44.6315 14.855 47.0539 14.8644C47.6536 14.8644 48.5476 15.018 49.1586 15.1125C50.2902 15.2543 50.0412 14.6281 49.2944 14.2264C47.3526 13.4495 45.2498 13.2173 43.1953 13.5529Z" fill="white"/>
</svg>
