<svg width="60" height="60" viewBox="0 0 60 60" fill="none" xmlns="http://www.w3.org/2000/svg">
<path d="M19.6515 44.7164H40.3811V40.3701H19.6515V44.7164ZM19.6515 33.9028H40.396V29.5713H19.6515V33.9028ZM13.8201 56C12.556 56 11.4366 55.5165 10.462 54.5496C9.48733 53.5827 9 52.4607 9 51.1837V8.83122C9 7.55007 9.48733 6.42458 10.462 5.45477C11.4366 4.48492 12.556 4 13.8201 4H36.1844L51 18.7266V51.1837C51 52.4607 50.5112 53.5827 49.5336 54.5496C48.5561 55.5165 47.4332 56 46.165 56H13.8201ZM33.7608 21.0236V8.83122H13.8201V51.1837H46.165V21.0236H33.7608Z" fill="#418DD9"/>
</svg>
