<svg width="60" height="60" viewBox="0 0 60 60" fill="none" xmlns="http://www.w3.org/2000/svg">
<path d="M27.7628 42.5763H32.2549V26.4143H27.7628V42.5763ZM29.9939 22.4515C30.727 22.4515 31.3198 22.2223 31.7725 21.7638C32.2251 21.3053 32.4514 20.7119 32.4514 19.9836C32.4514 19.2596 32.2247 18.6702 31.7712 18.2154C31.3176 17.7606 30.7243 17.5332 29.9912 17.5332C29.2581 17.5332 28.6653 17.7617 28.2126 18.2188C27.76 18.6759 27.5337 19.2674 27.5337 19.9936C27.5337 20.7197 27.7604 21.3108 28.2139 21.7671C28.6674 22.2234 29.2608 22.4515 29.9939 22.4515ZM29.9949 56C23.8955 54.5215 18.8716 51.0193 14.9229 45.4935C10.9743 39.9677 9 33.9351 9 27.3956V11.8829L29.9925 4L51 11.8834V27.3637C51 33.9271 49.024 39.9711 45.0719 45.4955C41.1199 51.02 36.0942 54.5215 29.9949 56ZM29.9925 51.0694C34.7133 49.4133 38.5888 46.4062 41.6193 42.0482C44.6497 37.6902 46.165 32.7997 46.165 27.3766V15.2063L29.9925 9.13191L13.8201 15.2136V27.3698C13.8201 32.7974 15.3353 37.6903 18.3658 42.0483C21.3962 46.4063 25.2718 49.4133 29.9925 51.0694Z" fill="#418DD9"/>
</svg>
