<svg width="60" height="60" viewBox="0 0 60 60" fill="none" xmlns="http://www.w3.org/2000/svg">
<path d="M13.6849 51C12.3712 51 11.2619 50.5476 10.3571 49.6428C9.45238 48.7381 9 47.6288 9 46.3151C9 45.0013 9.45238 43.8917 10.3571 42.9863C11.2619 42.0808 12.3712 41.6281 13.6849 41.6281C14.9987 41.6281 16.1083 42.0808 17.0137 42.9863C17.9192 43.8917 18.3719 45.0013 18.3719 46.3151C18.3719 47.6288 17.9192 48.7381 17.0137 49.6428C16.1083 50.5476 14.9987 51 13.6849 51ZM30.0056 51C28.7021 51 27.5943 50.5476 26.6822 49.6428C25.7701 48.7381 25.3141 47.6288 25.3141 46.3151C25.3141 45.0013 25.7682 43.8917 26.6766 42.9863C27.5849 42.0808 28.6908 41.6281 29.9944 41.6281C31.2979 41.6281 32.4057 42.0808 33.3178 42.9863C34.2299 43.8917 34.6859 45.0013 34.6859 46.3151C34.6859 47.6288 34.2318 48.7381 33.3234 49.6428C32.4151 50.5476 31.3092 51 30.0056 51ZM46.3151 51C45.0013 51 43.8917 50.5476 42.9863 49.6428C42.0808 48.7381 41.6281 47.6288 41.6281 46.3151C41.6281 45.0013 42.0808 43.8917 42.9863 42.9863C43.8917 42.0808 45.0013 41.6281 46.3151 41.6281C47.6288 41.6281 48.7381 42.0808 49.6429 42.9863C50.5476 43.8917 51 45.0013 51 46.3151C51 47.6288 50.5476 48.7381 49.6429 49.6428C48.7381 50.5476 47.6288 51 46.3151 51ZM13.6849 34.6859C12.3712 34.6859 11.2619 34.2318 10.3571 33.3234C9.45238 32.4151 9 31.3092 9 30.0056C9 28.7021 9.45238 27.5943 10.3571 26.6822C11.2619 25.7701 12.3712 25.3141 13.6849 25.3141C14.9987 25.3141 16.1083 25.7682 17.0137 26.6766C17.9192 27.5849 18.3719 28.6908 18.3719 29.9944C18.3719 31.2979 17.9192 32.4057 17.0137 33.3178C16.1083 34.2299 14.9987 34.6859 13.6849 34.6859ZM30.0056 34.6859C28.7021 34.6859 27.5943 34.2318 26.6822 33.3234C25.7701 32.4151 25.3141 31.3092 25.3141 30.0056C25.3141 28.7021 25.7682 27.5943 26.6766 26.6822C27.5849 25.7701 28.6908 25.3141 29.9944 25.3141C31.2979 25.3141 32.4057 25.7682 33.3178 26.6766C34.2299 27.5849 34.6859 28.6908 34.6859 29.9944C34.6859 31.2979 34.2318 32.4057 33.3234 33.3178C32.4151 34.2299 31.3092 34.6859 30.0056 34.6859ZM46.3151 34.6859C45.0013 34.6859 43.8917 34.2318 42.9863 33.3234C42.0808 32.4151 41.6281 31.3092 41.6281 30.0056C41.6281 28.7021 42.0808 27.5943 42.9863 26.6822C43.8917 25.7701 45.0013 25.3141 46.3151 25.3141C47.6288 25.3141 48.7381 25.7682 49.6429 26.6766C50.5476 27.5849 51 28.6908 51 29.9944C51 31.2979 50.5476 32.4057 49.6429 33.3178C48.7381 34.2299 47.6288 34.6859 46.3151 34.6859ZM13.6849 18.3719C12.3712 18.3719 11.2619 17.9192 10.3571 17.0137C9.45238 16.1083 9 14.9987 9 13.6849C9 12.3712 9.45238 11.2619 10.3571 10.3571C11.2619 9.45238 12.3712 9 13.6849 9C14.9987 9 16.1083 9.45238 17.0137 10.3571C17.9192 11.2619 18.3719 12.3712 18.3719 13.6849C18.3719 14.9987 17.9192 16.1083 17.0137 17.0137C16.1083 17.9192 14.9987 18.3719 13.6849 18.3719ZM30.0056 18.3719C28.7021 18.3719 27.5943 17.9192 26.6822 17.0137C25.7701 16.1083 25.3141 14.9987 25.3141 13.6849C25.3141 12.3712 25.7682 11.2619 26.6766 10.3571C27.5849 9.45238 28.6908 9 29.9944 9C31.2979 9 32.4057 9.45238 33.3178 10.3571C34.2299 11.2619 34.6859 12.3712 34.6859 13.6849C34.6859 14.9987 34.2318 16.1083 33.3234 17.0137C32.4151 17.9192 31.3092 18.3719 30.0056 18.3719ZM46.3151 18.3719C45.0013 18.3719 43.8917 17.9192 42.9863 17.0137C42.0808 16.1083 41.6281 14.9987 41.6281 13.6849C41.6281 12.3712 42.0808 11.2619 42.9863 10.3571C43.8917 9.45238 45.0013 9 46.3151 9C47.6288 9 48.7381 9.45238 49.6429 10.3571C50.5476 11.2619 51 12.3712 51 13.6849C51 14.9987 50.5476 16.1083 49.6429 17.0137C48.7381 17.9192 47.6288 18.3719 46.3151 18.3719Z" fill="#418DD9"/>
</svg>
