<svg width="60" height="60" viewBox="0 0 60 60" fill="none" xmlns="http://www.w3.org/2000/svg">
<path d="M29.9949 56C23.8955 54.5215 18.8716 51.0193 14.9229 45.4935C10.9743 39.9677 9 33.9351 9 27.3956V11.8829L29.9925 4L51 11.8834V27.3637C51 33.9271 49.024 39.9711 45.0719 45.4955C41.1199 51.02 36.0942 54.5215 29.9949 56ZM29.9824 51.0695C34.3358 49.5792 37.9651 46.8997 40.8705 43.031C43.7758 39.1624 45.4783 34.8181 45.9779 29.9983H29.9925V9.19408L13.8201 15.2246V27.4117C13.8201 27.9352 13.833 28.3709 13.8588 28.7187C13.8845 29.0666 13.9343 29.4937 14.0082 30H29.9824V51.0695Z" fill="#418DD9"/>
</svg>
