<svg width="60" height="60" viewBox="0 0 60 60" fill="none" xmlns="http://www.w3.org/2000/svg">
<path d="M6.83307 46C5.51449 46 4.37933 45.5195 3.4276 44.5586C2.47587 43.5977 2 42.4394 2 41.0838C2 39.7282 2.47941 38.5788 3.43824 37.6357C4.39706 36.6925 5.5231 36.2209 6.81636 36.2209C7.05873 36.2209 7.29169 36.2285 7.51524 36.2435C7.73879 36.2586 8.03737 36.3081 8.41097 36.392L20.2971 24.4234C20.2137 24.0537 20.1591 23.7711 20.1332 23.5756C20.1074 23.3801 20.0945 23.1411 20.0945 22.8585C20.0945 21.5209 20.5742 20.3793 21.5336 19.4336C22.4931 18.488 23.645 18.0152 24.9893 18.0152C26.3337 18.0152 27.4738 18.4944 28.4098 19.4528C29.3457 20.4113 29.8137 21.5634 29.8137 22.9093C29.8137 23.0454 29.7461 23.5492 29.611 24.4208L36.034 30.8435C36.3902 30.7696 36.6794 30.7172 36.9014 30.6861C37.1235 30.6551 37.3403 30.6396 37.5519 30.6396C37.7634 30.6396 37.986 30.6551 38.2195 30.6861C38.453 30.7172 38.7483 30.7747 39.1054 30.8586L48.4658 21.4422C48.3824 21.0958 48.3357 20.8069 48.3257 20.5756C48.3157 20.3442 48.3107 20.1048 48.3107 19.8573C48.3107 18.4966 48.789 17.3468 49.7456 16.4081C50.7022 15.4694 51.8541 15 53.2014 15C54.5487 15 55.6853 15.471 56.6112 16.4131C57.5371 17.3551 58 18.5109 58 19.8804C58 21.2179 57.5294 22.3662 56.5882 23.3253C55.647 24.2844 54.5156 24.764 53.194 24.764C52.9547 24.764 52.7183 24.7589 52.4848 24.7489C52.2512 24.7389 51.9552 24.6919 51.5967 24.608L42.2534 34.0238C42.3368 34.3845 42.3835 34.6769 42.3935 34.9008C42.4035 35.1248 42.4085 35.3577 42.4085 35.5995C42.4085 36.9296 41.9392 38.0733 41.0006 39.0306C40.062 39.9879 38.915 40.4665 37.5597 40.4665C36.2362 40.4665 35.0936 39.9883 34.1319 39.0318C33.1701 38.0753 32.6893 36.9315 32.6893 35.6003C32.6893 35.3379 32.7047 35.1014 32.7355 34.8908C32.7663 34.6801 32.8185 34.3904 32.8919 34.0214L26.5079 27.5903C26.1414 27.6649 25.8498 27.7178 25.633 27.7488C25.4161 27.7799 25.1857 27.7954 24.9415 27.7954C24.807 27.7954 24.3023 27.727 23.4275 27.5903L11.5342 39.5894C11.6276 39.9388 11.6793 40.2249 11.6893 40.4477C11.6993 40.6707 11.7042 40.9075 11.7042 41.1582C11.7042 42.4582 11.2328 43.5902 10.2898 44.5541C9.34677 45.518 8.19453 46 6.83307 46Z" fill="#418DD9"/>
</svg>
