<svg width="60" height="60" viewBox="0 0 60 60" fill="none" xmlns="http://www.w3.org/2000/svg">
<path d="M49.0452 22.2794V14.0588H40.9936V9H48.3639C49.8988 9 51.222 9.56726 52.3332 10.7018C53.4444 11.8364 54 13.1872 54 14.7544V22.2794H49.0452ZM6 22.2794V14.7544C6 13.1872 6.5556 11.8364 7.66681 10.7018C8.77805 9.56726 10.1012 9 11.6361 9H18.9445V14.0588H10.9548V22.2794H6ZM40.9936 52V46.9412H49.0452V38.7206H54V46.2456C54 47.7537 53.4444 49.0899 52.3332 50.2539C51.222 51.418 49.8988 52 48.3639 52H40.9936ZM11.6361 52C10.1012 52 8.77805 51.418 7.66681 50.2539C6.5556 49.0899 6 47.7537 6 46.2456V38.7206H10.9548V46.9412H18.9445V52H11.6361Z" fill="#418DD9"/>
<path fill-rule="evenodd" clip-rule="evenodd" d="M30 41C36.0751 41 41 36.0751 41 30C41 23.9249 36.0751 19 30 19C23.9249 19 19 23.9249 19 30C19 36.0751 23.9249 41 30 41ZM30 46C38.8366 46 46 38.8366 46 30C46 21.1634 38.8366 14 30 14C21.1634 14 14 21.1634 14 30C14 38.8366 21.1634 46 30 46Z" fill="#418DD9"/>
<path d="M28 28.5C28 29.8807 26.8807 31 25.5 31C24.1193 31 23 29.8807 23 28.5C23 27.1193 24.1193 26 25.5 26C26.8807 26 28 27.1193 28 28.5Z" fill="#418DD9"/>
<path d="M37 28.5C37 29.8807 35.8807 31 34.5 31C33.1193 31 32 29.8807 32 28.5C32 27.1193 33.1193 26 34.5 26C35.8807 26 37 27.1193 37 28.5Z" fill="#418DD9"/>
</svg>
