<svg width="60" height="60" viewBox="0 0 60 60" fill="none" xmlns="http://www.w3.org/2000/svg">
<path d="M51.0417 22.2794V14.0588H42.9845V9H50.36C51.896 9 53.22 9.56726 54.332 10.7018C55.444 11.8364 56 13.1872 56 14.7544V22.2794H51.0417ZM4 22.2794V14.7544C4 13.1872 4.55599 11.8364 5.66797 10.7018C6.77999 9.56726 8.10401 9 9.64005 9H16.9535V14.0588H8.95828V22.2794H4ZM42.9845 52V46.9412H51.0417V38.7206H56V46.2456C56 47.7538 55.444 49.0899 54.332 50.2539C53.22 51.418 51.896 52 50.36 52H42.9845ZM9.64005 52C8.10401 52 6.77999 51.418 5.66797 50.2539C4.55599 49.0899 4 47.7538 4 46.2456V38.7206H8.95828V46.9412H16.9535V52H9.64005ZM12.4911 43.3368V17.6632H47.5089V43.3368H12.4911ZM17.4493 38.2779H42.5507V22.7221H17.4493V38.2779Z" fill="#418DD9"/>
</svg>
