<svg width="60" height="60" viewBox="0 0 60 60" fill="none" xmlns="http://www.w3.org/2000/svg">
<path fill-rule="evenodd" clip-rule="evenodd" d="M30.5 7C31.9481 7 33.122 8.17389 33.122 9.62195V49.4756C33.122 50.9237 31.9481 52.0976 30.5 52.0976C29.0519 52.0976 27.878 50.9237 27.878 49.4756V9.62195C27.878 8.17389 29.0519 7 30.5 7Z" fill="#418DD9"/>
<path fill-rule="evenodd" clip-rule="evenodd" d="M39.939 14.3415C41.3871 14.3415 42.561 15.5154 42.561 16.9634V42.1341C42.561 43.5822 41.3871 44.7561 39.939 44.7561C38.491 44.7561 37.3171 43.5822 37.3171 42.1341V16.9634C37.3171 15.5154 38.491 14.3415 39.939 14.3415Z" fill="#418DD9"/>
<path fill-rule="evenodd" clip-rule="evenodd" d="M49.3781 20.6341C50.8261 20.6341 52 21.808 52 23.2561V35.8415C52 37.2895 50.8261 38.4634 49.3781 38.4634C47.93 38.4634 46.7561 37.2895 46.7561 35.8415V23.2561C46.7561 21.808 47.93 20.6341 49.3781 20.6341Z" fill="#418DD9"/>
<path fill-rule="evenodd" clip-rule="evenodd" d="M21.061 14.3415C22.509 14.3415 23.6829 15.5154 23.6829 16.9634V42.1341C23.6829 43.5822 22.509 44.7561 21.061 44.7561C19.6129 44.7561 18.439 43.5822 18.439 42.1341V16.9634C18.439 15.5154 19.6129 14.3415 21.061 14.3415Z" fill="#418DD9"/>
<path fill-rule="evenodd" clip-rule="evenodd" d="M11.622 20.6341C13.07 20.6341 14.2439 21.808 14.2439 23.2561V35.8415C14.2439 37.2895 13.07 38.4634 11.622 38.4634C10.1739 38.4634 9 37.2895 9 35.8415V23.2561C9 21.808 10.1739 20.6341 11.622 20.6341Z" fill="#418DD9"/>
</svg>
