<svg width="60" height="60" viewBox="0 0 60 60" fill="none" xmlns="http://www.w3.org/2000/svg">
<path d="M29.5183 39.4375C32.4037 39.4375 34.8502 38.421 36.8578 36.3879C38.8655 34.3548 39.8693 31.886 39.8693 28.9816C39.8693 26.0772 38.8594 23.6146 36.8396 21.5938C34.8198 19.5729 32.3672 18.5625 29.4817 18.5625C26.5963 18.5625 24.1498 19.579 22.1422 21.6121C20.1345 23.6452 19.1307 26.114 19.1307 29.0184C19.1307 31.9228 20.1406 34.3854 22.1604 36.4062C24.1802 38.4271 26.6328 39.4375 29.5183 39.4375ZM29.4927 35C27.859 35 26.4584 34.4099 25.2907 33.2296C24.123 32.0494 23.5392 30.637 23.5392 28.9926C23.5392 27.3482 24.1255 25.9384 25.298 24.763C26.4706 23.5877 27.8737 23 29.5073 23C31.141 23 32.5416 23.5901 33.7093 24.7704C34.877 25.9506 35.4608 27.363 35.4608 29.0074C35.4608 30.6518 34.8745 32.0616 33.702 33.237C32.5294 34.4123 31.1263 35 29.4927 35ZM29.5 49C23.2495 49 17.5681 47.1458 12.4559 43.4375C7.34368 39.7292 3.52505 34.9167 1 29C3.52505 23.0833 7.34368 18.2708 12.4559 14.5625C17.5681 10.8542 23.2495 9 29.5 9C35.7505 9 41.4319 10.8542 46.5441 14.5625C51.6563 18.2708 55.4749 23.0833 58 29C55.4749 34.9167 51.6563 39.7292 46.5441 43.4375C41.4319 47.1458 35.7505 49 29.5 49ZM29.495 44C34.5225 44 39.0978 42.645 43.2209 39.9349C47.3439 37.2249 50.511 33.5799 52.7222 29C50.511 24.4201 47.3455 20.7751 43.2258 18.0651C39.106 15.355 34.5324 14 29.505 14C24.4775 14 19.8918 15.355 15.7481 18.0651C11.6044 20.7751 8.42689 24.4201 6.21569 29C8.42689 33.5799 11.6027 37.2249 15.7432 39.9349C19.8836 42.645 24.4676 44 29.495 44Z" fill="#418DD9"/>
</svg>
