<svg width="60" height="60" viewBox="0 0 60 60" fill="none" xmlns="http://www.w3.org/2000/svg">
<g clip-path="url(#clip0_1066_30988)">
<path d="M30 45C26.0218 45 22.2064 43.4196 19.3934 40.6066C16.5804 37.7936 15 33.9782 15 30C15 26.0218 16.5804 22.2064 19.3934 19.3934C22.2064 16.5804 26.0218 15 30 15C33.9782 15 37.7936 16.5804 40.6066 19.3934C43.4196 22.2064 45 26.0218 45 30C45 33.9782 43.4196 37.7936 40.6066 40.6066C37.7936 43.4196 33.9782 45 30 45ZM30 39.375C32.4864 39.375 34.871 38.3873 36.6291 36.6291C38.3873 34.871 39.375 32.4864 39.375 30C39.375 27.5136 38.3873 25.129 36.6291 23.3709C34.871 21.6127 32.4864 20.625 30 20.625C27.5136 20.625 25.129 21.6127 23.3709 23.3709C21.6127 25.129 20.625 27.5136 20.625 30C20.625 32.4864 21.6127 34.871 23.3709 36.6291C25.129 38.3873 27.5136 39.375 30 39.375ZM51.2137 8.78625C51.4751 9.04744 51.6824 9.35757 51.8239 9.69891C51.9653 10.0403 52.0381 10.4061 52.0381 10.7756C52.0381 11.1451 51.9653 11.511 51.8239 11.8523C51.6824 12.1937 51.4751 12.5038 51.2137 12.765L47.235 16.74C46.8912 17.1102 46.454 17.3809 45.9693 17.5234C45.4846 17.666 44.9704 17.6752 44.481 17.55C43.9915 17.4249 43.5449 17.17 43.1881 16.8123C42.8313 16.4546 42.5776 16.0073 42.4538 15.5175C42.3284 15.0286 42.3372 14.5149 42.4791 14.0306C42.6209 13.5462 42.8907 13.109 43.26 12.765L47.235 8.79C47.7623 8.26331 48.4772 7.96747 49.2225 7.96747C49.9678 7.96747 50.6827 8.26331 51.21 8.79L51.2137 8.78625ZM16.74 43.26C17.2667 43.7873 17.5625 44.5022 17.5625 45.2475C17.5625 45.9928 17.2667 46.7077 16.74 47.235L12.765 51.2137C12.5057 51.4825 12.1954 51.6969 11.8524 51.8445C11.5093 51.992 11.1403 52.0698 10.7668 52.0732C10.3934 52.0766 10.023 52.0056 9.67732 51.8644C9.33161 51.7231 9.01749 51.5144 8.75329 51.2505C8.4891 50.9865 8.28011 50.6726 8.13853 50.327C7.99696 49.9815 7.92562 49.6112 7.92869 49.2377C7.93176 48.8643 8.00917 48.4952 8.1564 48.152C8.30364 47.8088 8.51775 47.4983 8.78625 47.2388L12.7613 43.26C13.0224 42.9986 13.3326 42.7913 13.6739 42.6499C14.0153 42.5084 14.3811 42.4356 14.7506 42.4356C15.1201 42.4356 15.486 42.5084 15.8273 42.6499C16.1687 42.7913 16.4788 42.9986 16.74 43.26ZM30 0C30.7459 0 31.4613 0.296316 31.9887 0.823762C32.5162 1.35121 32.8125 2.06658 32.8125 2.8125V8.4375C32.8125 9.18342 32.5162 9.89879 31.9887 10.4262C31.4613 10.9537 30.7459 11.25 30 11.25C29.2541 11.25 28.5387 10.9537 28.0113 10.4262C27.4838 9.89879 27.1875 9.18342 27.1875 8.4375V2.8125C27.1875 2.06658 27.4838 1.35121 28.0113 0.823762C28.5387 0.296316 29.2541 0 30 0ZM11.25 30C11.25 30.7459 10.9537 31.4613 10.4262 31.9887C9.89879 32.5162 9.18342 32.8125 8.4375 32.8125H2.8125C2.06658 32.8125 1.35121 32.5162 0.823762 31.9887C0.296316 31.4613 0 30.7459 0 30C0 29.2541 0.296316 28.5387 0.823762 28.0113C1.35121 27.4838 2.06658 27.1875 2.8125 27.1875H8.4375C9.18342 27.1875 9.89879 27.4838 10.4262 28.0113C10.9537 28.5387 11.25 29.2541 11.25 30ZM60 30C60 30.7459 59.7037 31.4613 59.1762 31.9887C58.6488 32.5162 57.9334 32.8125 57.1875 32.8125H51.5625C50.8166 32.8125 50.1012 32.5162 49.5738 31.9887C49.0463 31.4613 48.75 30.7459 48.75 30C48.75 29.2541 49.0463 28.5387 49.5738 28.0113C50.1012 27.4838 50.8166 27.1875 51.5625 27.1875H57.1875C57.9334 27.1875 58.6488 27.4838 59.1762 28.0113C59.7037 28.5387 60 29.2541 60 30ZM30 48.75C30.7459 48.75 31.4613 49.0463 31.9887 49.5738C32.5162 50.1012 32.8125 50.8166 32.8125 51.5625V57.1875C32.8125 57.9334 32.5162 58.6488 31.9887 59.1762C31.4613 59.7037 30.7459 60 30 60C29.2541 60 28.5387 59.7037 28.0113 59.1762C27.4838 58.6488 27.1875 57.9334 27.1875 57.1875V51.5625C27.1875 50.8166 27.4838 50.1012 28.0113 49.5738C28.5387 49.0463 29.2541 48.75 30 48.75ZM43.26 43.26C43.7873 42.7333 44.5022 42.4375 45.2475 42.4375C45.9928 42.4375 46.7077 42.7333 47.235 43.26L51.2137 47.235C51.7263 47.7652 52.0102 48.4755 52.0041 49.2129C51.998 49.9504 51.7026 50.6559 51.1814 51.1776C50.6601 51.6994 49.9549 51.9955 49.2174 52.0022C48.48 52.009 47.7694 51.7258 47.2388 51.2137L43.26 47.2388C42.9986 46.9776 42.7913 46.6674 42.6499 46.3261C42.5084 45.9847 42.4356 45.6189 42.4356 45.2494C42.4356 44.8799 42.5084 44.514 42.6499 44.1727C42.7913 43.8313 42.9986 43.5212 43.26 43.26ZM8.78625 8.78625C9.04744 8.52489 9.35757 8.31757 9.69891 8.17611C10.0403 8.03466 10.4061 7.96185 10.7756 7.96185C11.1451 7.96185 11.511 8.03466 11.8523 8.17611C12.1937 8.31757 12.5038 8.52489 12.765 8.78625L16.74 12.765C17.2365 13.2985 17.5069 14.0037 17.4943 14.7324C17.4817 15.4611 17.1872 16.1565 16.6725 16.6725C16.1565 17.1872 15.4611 17.4817 14.7324 17.4943C14.0037 17.5069 13.2985 17.2365 12.765 16.74L8.79 12.765C8.26331 12.2377 7.96747 11.5228 7.96747 10.7775C7.96747 10.0322 8.26331 9.31735 8.79 8.79L8.78625 8.78625Z" fill="#418DD9"/>
</g>
<defs>
<clipPath id="clip0_1066_30988">
<rect width="60" height="60" fill="white"/>
</clipPath>
</defs>
</svg>
