<svg width="60" height="60" viewBox="0 0 60 60" fill="none" xmlns="http://www.w3.org/2000/svg">
<path d="M30 56L19.0825 45.0825L22.4903 41.6748L27.7282 46.9757V35.5534H32.335V46.9757L37.5728 41.7379L40.9175 45.0825L30 56ZM14.6019 40.6019L4 30L14.665 19.335L18.0097 22.6796L13.0243 27.665H24.4466V32.2718H13.0874L18.0097 37.1942L14.6019 40.6019ZM45.3981 40.6019L42.0534 37.1942L46.9757 32.2718H35.6165V27.665H46.9757L42.0534 22.7427L45.3981 19.3981L56 30L45.3981 40.6019ZM27.7282 24.3835V13.0243L22.7427 17.9466L19.3981 14.6019L30 4L40.6019 14.6019L37.2573 17.9466L32.335 13.0243V24.3835H27.7282Z" fill="#418DD9"/>
</svg>
