<svg width="60" height="60" viewBox="0 0 60 60" fill="none" xmlns="http://www.w3.org/2000/svg">
<path d="M15.1682 51.0009C11.2726 51.0009 7.93719 49.6227 5.16211 46.8663C2.38702 44.1098 0.999474 40.7906 0.999474 36.9086C0.999474 33.5394 2.04816 30.5228 4.14553 27.8588C6.2429 25.1949 8.96279 23.5606 12.3052 22.9561C13.2821 18.8247 15.3843 15.466 18.6118 12.88C21.8394 10.2939 25.5131 9.0009 29.6331 9.0009C34.4547 9.0009 38.5214 10.7102 41.8331 14.1289C45.1449 17.5475 46.9303 21.6714 47.1894 26.5006V27.9992C50.2727 28.1739 52.8452 29.3323 54.9069 31.4745C56.9686 33.6166 57.9995 36.2864 57.9995 39.4838C57.9995 42.6373 56.8652 45.3452 54.5967 47.6075C52.3281 49.8698 49.6274 51.0009 46.4946 51.0009H32.1174C30.8147 51.0009 29.6839 50.5138 28.7249 49.5396C27.766 48.5653 27.2865 47.4433 27.2865 46.1736V31.355L22.2485 36.3724L19.0537 33.185L29.4995 22.6996L40.0075 33.185L36.7978 36.3724L31.7747 31.355V46.1736H46.4581C48.3018 46.1736 49.8836 45.5048 51.2036 44.1671C52.5236 42.8295 53.1836 41.2584 53.1836 39.4539C53.1836 37.6242 52.5204 36.0447 51.1939 34.7153C49.8675 33.3858 48.2978 32.7211 46.4849 32.7211H42.3718V27.3582C42.3718 23.6618 41.1226 20.4852 38.6242 17.8284C36.1257 15.1715 33.0392 13.8431 29.3647 13.8431C25.6681 13.8431 22.571 15.1885 20.0735 17.8792C17.5759 20.5699 16.3272 23.7781 16.3272 27.5036H15.0074C12.4477 27.5036 10.2758 28.3881 8.49163 30.1571C6.70745 31.9262 5.81536 34.1474 5.81536 36.8209C5.81536 39.3907 6.72051 41.592 8.53081 43.4246C10.3411 45.2573 12.556 46.1736 15.1757 46.1736H23.5486V51.0009H15.1682Z" fill="#418DD9"/>
</svg>
