<svg width="60" height="60" viewBox="0 0 60 60" fill="none" xmlns="http://www.w3.org/2000/svg">
<path d="M45.4388 53.999H16.7173V20.3551L34.5833 1.99896L37.781 4.59319C38.0869 4.8222 38.3136 5.1632 38.4611 5.61619C38.6085 6.06922 38.6823 6.6133 38.6823 7.24843V7.79748L35.8315 20.3551H54.008C55.2958 20.3551 56.4314 20.8399 57.4148 21.8094C58.3982 22.7789 58.8899 23.9 58.8899 25.1728V29.7653C58.8899 30.087 58.9189 30.4248 58.9768 30.7789C59.0348 31.133 58.9848 31.4505 58.827 31.7314L50.6649 50.4267C50.206 51.4428 49.4896 52.2922 48.5155 52.9749C47.5414 53.6576 46.5159 53.999 45.4388 53.999ZM21.4185 49.1813H45.9975L53.993 30.298V25.1728H29.904L33.2968 10.0316L21.4185 22.508V49.1813ZM16.7173 20.3551V25.1728H8.86699V49.1813H16.7173V53.999H4.00015V20.3551H16.7173Z" fill="#418DD9"/>
</svg>
