<svg width="60" height="60" viewBox="0 0 60 60" fill="none" xmlns="http://www.w3.org/2000/svg">
<path d="M10.5687 57C9.34358 57 8.27586 56.5345 7.36554 55.6034C6.45518 54.6724 6 53.6029 6 52.3949V12.778H10.5687V52.3949H41.7361V57H10.5687ZM19.7061 47.7897C18.481 47.7897 17.4133 47.3242 16.503 46.3932C15.5926 45.4622 15.1374 44.3926 15.1374 43.1846V7.60514C15.1374 6.39708 15.5926 5.32755 16.503 4.39656C17.4133 3.46552 18.481 3 19.7061 3H47.4313C48.6298 3 49.6909 3.46552 50.6145 4.39656C51.5382 5.32755 52 6.39708 52 7.60514V43.1846C52 44.3926 51.5382 45.4622 50.6145 46.3932C49.6909 47.3242 48.6298 47.7897 47.4313 47.7897H19.7061ZM19.7061 43.1846H47.4313V7.60514H19.7061V43.1846Z" fill="#418DD9"/>
</svg>
